<?xml version="1.0" encoding="UTF-8"?>
<svg version="1.1" xmlns="http://www.w3.org/2000/svg" width="1353" height="1031">
<path d="M0 0 C4.89035392 4.02965163 9.31617305 8.31427812 13.70947266 12.87768555 C21.58018873 21.01489544 28.78308466 27.94660355 39 33 C39.8979126 33.47107178 39.8979126 33.47107178 40.81396484 33.95166016 C97.0641178 63.45970218 164.44831227 62.52672407 223.875 44.1875 C226.50253569 43.35320622 229.12873705 42.51618464 231.74951172 41.66088867 C242.7538108 38.42931592 253.36336578 39.83871833 264.21484375 42.90234375 C265.35905289 43.21113464 266.50326202 43.51992554 267.68214417 43.83807373 C270.78941707 44.68003824 273.89228219 45.53634459 276.99380493 46.39919662 C280.302364 47.315497 283.61633129 48.21182991 286.9296875 49.1105957 C294.60088121 51.19556358 302.26434253 53.308079 309.92629242 55.42672729 C313.29446988 56.35785385 316.66310923 57.28730565 320.03173828 58.21679688 C320.68506323 58.39708844 321.33838818 58.57738001 322.01151085 58.76313496 C328.52712904 60.5611038 335.04304506 62.35798897 341.55950928 64.15288925 C342.85467714 64.50971171 344.14980239 64.8666889 345.44488525 65.22381973 C364.22369187 70.4021418 383.03920164 75.39977227 401.9375 80.125 C403.01387726 80.3956427 404.09025452 80.6662854 405.19924927 80.94512939 C415.31329555 83.4833064 425.414628 85.96264563 435.65625 87.93359375 C460.3369367 92.72083226 460.3369367 92.72083226 468.63867188 103.30712891 C470.66079456 105.82172695 472.90921115 108.10351207 475.14135742 110.4309082 C479.1508598 114.63803428 483.01149825 118.97928369 486.8125 123.375 C489.14012686 126.04661113 491.49853296 128.67919691 493.9375 131.25 C494.52402344 131.87390625 495.11054687 132.4978125 495.71484375 133.140625 C501.47082194 137.82412179 507.54168115 139.62914849 514.80078125 140.4921875 C515.62626465 140.60320801 516.45174805 140.71422852 517.30224609 140.82861328 C519.06133898 141.06515766 520.82118879 141.29613088 522.58169556 141.52191162 C527.21624088 142.12115046 531.84259081 142.77700774 536.46875 143.4375 C537.38392899 143.56808807 538.29910797 143.69867615 539.24201965 143.83322144 C571.78374402 148.56135411 603.88415842 158.50520416 634.44873047 170.47924805 C652.4219347 177.36084397 670.39298628 179.48253655 689.4375 181.625 C693.38630905 182.07023953 697.33446116 182.51990838 701.2815094 182.9805603 C703.72218265 183.26539357 706.16386658 183.54171972 708.60655212 183.80874634 C709.69601639 183.93582977 710.78548065 184.06291321 711.90795898 184.19384766 C712.87007797 184.30169586 713.83219696 184.40954407 714.82347107 184.5206604 C715.54172562 184.67884247 716.25998016 184.83702454 717 185 C720.54221545 192.0844309 718.87406452 205.24896977 717.12890625 212.73828125 C715.94597722 215.66651539 714.62361186 218.292617 713 221 C712.45730469 221.91523438 711.91460938 222.83046875 711.35546875 223.7734375 C709.05360374 227.48344115 706.61266297 231.09147841 704.171875 234.7109375 C699.87614276 241.22924424 696.85913681 247.75400852 694 255 C692.87902198 257.76086372 691.72667326 260.50710823 690.5625 263.25 C690.29824219 263.89928467 690.03398438 264.54856934 689.76171875 265.2175293 C685.76155673 274.59529009 679.01081769 281.19057017 671.77334595 288.20669556 C665.03599013 294.74785187 658.40601029 301.23771005 652.8125 308.8125 C645.79166043 318.25777254 636.89843693 324.35048066 626.84765625 330.17578125 C621.46480964 333.62405199 619.00256395 337.48885744 616.3125 343.1875 C615.61617036 344.61665976 614.91819372 346.04501797 614.21875 347.47265625 C613.8578125 348.21273926 613.496875 348.95282227 613.125 349.71533203 C611.23891928 353.54561489 609.28725219 357.33981563 607.3125 361.125 C606.95647705 361.82262451 606.6004541 362.52024902 606.23364258 363.23901367 C600.42462872 374.32480541 591.43420503 381.70813909 579.63085938 385.82666016 C572.40769299 387.97977155 565.81756349 388.36673912 558.3125 388.1875 C557.21744141 388.17396484 556.12238281 388.16042969 554.99414062 388.14648438 C552.32888586 388.11156837 549.66472496 388.06253717 547 388 C548.45220629 383.00224749 550.63598894 378.8861425 553.25 374.4375 C557.27254224 367.45847466 560.77432841 360.38742043 564 353 C560.73245226 353.61113736 557.94944806 354.91737733 554.97729492 356.37475586 C541.08369998 363.17895045 529.40802252 365.62254636 514 365 C513.90295776 364.16976318 513.90295776 364.16976318 513.80395508 363.32275391 C512.49180594 348.26517748 512.49180594 348.26517748 506 335 C503.93636359 333.7506625 503.93636359 333.7506625 502 333 C501.63390625 333.47308594 501.2678125 333.94617188 500.890625 334.43359375 C492.71009977 344.425521 482.55538417 351.64627993 470 355 C468.33360675 355.03018773 466.66630074 355.034923 465 355 C461.1575627 347.61300478 457.84572336 340.07638616 454.6875 332.375 C454.0059082 330.72564453 454.0059082 330.72564453 453.31054688 329.04296875 C452.20373446 326.36331763 451.10028896 323.68233471 450 321 C447.04183144 322.38581243 444.49596344 323.9953288 441.875 325.94140625 C441.0910083 326.52132324 440.3070166 327.10124023 439.49926758 327.69873047 C438.26213013 328.62129639 438.26213013 328.62129639 437 329.5625 C435.73482544 330.50053467 435.73482544 330.50053467 434.4440918 331.45751953 C431.9598545 333.3011912 429.47913008 335.14946814 427 337 C426.32018066 337.50740723 425.64036133 338.01481445 424.93994141 338.53759766 C421.62090439 341.01749837 418.30740382 343.50459353 415 346 C402.83257994 340.59225775 395.76218921 327.40177865 390 316 C390 315.34 390 314.68 390 314 C379.17631592 317.84139101 371.45177276 323.20777737 363.359375 331.33984375 C361 333 361 333 358.46875 332.92578125 C345.55296774 328.0823629 338.48101421 313.25917371 332 302 C325.5955542 304.70162726 321.15108776 307.56390462 317.99609375 314.0703125 C315.86361613 319.55929078 315.55791721 324.28547791 317 330 C318.39924945 333.30101131 318.39924945 333.30101131 320 336 C320.33 336.99 320.66 337.98 321 339 C322.8265255 340.15324366 322.8265255 340.15324366 325 341 C325.9590625 341.42152344 325.9590625 341.42152344 326.9375 341.8515625 C339.11385567 346.41769588 351.6378268 343.30760566 364 341 C371.09324386 349.8218495 370.35913191 360.27924743 370 371 C378.96017844 368.24302202 385.98165581 365.13250908 393.57421875 359.57421875 C396 358 396 358 399 358 C406.02841608 371.91863297 412 387.16777988 412 403 C412.67877197 402.69819824 413.35754395 402.39639648 414.05688477 402.08544922 C450.28440717 386 450.28440717 386 455 386 C461.11057084 396.91690917 463.3608897 407.57040649 464 420 C469.75693628 416.18907035 474.87669595 412.5018331 479.33203125 407.1875 C481 406 481 406 483.453125 406.078125 C490.54608835 408.64551664 494.42900515 416.37284886 497.5 422.8125 C499.22973237 426.66299467 500 428.73174772 500 433 C519.89974195 428.51280328 534.6192954 418.80798476 549.81274414 405.45410156 C553.78792795 402 553.78792795 402 556 402 C559.95310303 413.18802744 562.40183201 424.22579664 557.3203125 435.47265625 C552.23804043 445.20114745 545.56814771 453.39518987 538.5234375 461.75146484 C527.98999579 474.31285874 522.236214 485.80173647 517.59985352 501.55932617 C513.9453772 513.82555936 509.2250188 522.89556968 500 532 C499.27296875 532.73734375 498.5459375 533.4746875 497.796875 534.234375 C491.00578007 540.74828238 483.24004941 545.5493698 475.31591797 550.53662109 C450.63859082 565.84886908 450.63859082 565.84886908 434 589 C433.34 589 432.68 589 432 589 C431.51490207 587.62708132 431.03724487 586.25153297 430.5625 584.875 C430.29566406 584.10929688 430.02882813 583.34359375 429.75390625 582.5546875 C427.89743608 576.26385074 427.80801666 570.13144479 427.8125 563.625 C427.81185547 562.65997559 427.81121094 561.69495117 427.81054688 560.70068359 C427.87141624 552.34082933 428.67593843 544.25174088 430 536 C414.72499961 535.29379279 402.09807276 537.94870139 388.42578125 544.4765625 C385.49296507 545.7807795 383.12083059 546.44736333 380 547 C380.23710693 546.29915283 380.47421387 545.59830566 380.71850586 544.8762207 C381.79467614 541.68937488 382.86613233 538.50096343 383.9375 535.3125 C384.49727539 533.65831055 384.49727539 533.65831055 385.06835938 531.97070312 C385.42607422 530.90400391 385.78378906 529.83730469 386.15234375 528.73828125 C386.6472229 527.26935425 386.6472229 527.26935425 387.15209961 525.77075195 C390.02021852 516.39837028 390.0283034 507.03841551 386 498 C379.3111024 486.37542012 367.39223294 480.83134722 355 477 C333.17380387 471.21222275 311.72062494 474.12116042 292 485 C281.61671097 491.14365154 272.60836806 498.59875057 264 507 C263.29746094 507.64066406 262.59492187 508.28132813 261.87109375 508.94140625 C232.17191413 536.7206389 222.82136964 579.13864599 214.57617188 617.20507812 C214.41156464 617.96482941 214.2469574 618.72458069 214.07736206 619.50735474 C213.76778868 620.94108991 213.46001415 622.37521507 213.15432739 623.80978394 C212.55364538 626.60332193 211.90466592 629.28600225 211 632 C197.17699917 625.85644407 188.79633269 607.19738237 183 594 C183 593.34 183 592.68 183 592 C156.56986706 617.30544643 149.46402617 653.61802849 148.5 688.6875 C148.20039779 698.81044658 147.83235149 708.90552446 147 719 C137.17123308 715.72374436 129.94698901 697.85454648 125.61328125 689.24511719 C124.10022364 686.19219583 122.6075081 683.13036732 121.125 680.0625 C120.40981201 678.58753052 120.40981201 678.58753052 119.68017578 677.08276367 C117.31600343 672.11036169 115.29609485 667.35570227 114 662 C93.7200267 678.19082337 82.16780405 702.9296483 76.125 727.6875 C75.93381592 728.46899414 75.74263184 729.25048828 75.5456543 730.05566406 C71.67204148 747.29438401 71.74732349 764.48289046 71.875 782.0625 C71.8850554 784.49023066 71.8941767 786.91796538 71.90234375 789.34570312 C71.92414151 795.23055886 71.95741399 801.11525986 72 807 C54.24179727 797.09781646 44.90832771 779.56283476 38 761 C37.27734375 757.96875 37.27734375 757.96875 37 756 C0.27465296 786.37655035 -2.06971605 837.30500309 -6.30078125 881.5234375 C-6.53622643 884.01541448 -6.76887531 886.50761716 -7 889 C-24.02554345 879.0564514 -32.91250353 856.67683734 -42 840 C-45.13188794 840 -46.24326313 841.90337092 -48.4375 844.0625 C-75.37405175 871.73863915 -80.95671774 908.90048412 -84.60595703 945.9140625 C-84.68426758 946.68169418 -84.76257813 947.44932587 -84.84326172 948.24021912 C-84.99080709 949.69093322 -85.13195738 951.14231706 -85.265625 952.59437561 C-85.62855849 956.12381135 -86.12536273 958.95577956 -88 962 C-123.16597711 925.6963001 -141.08192254 871.04732281 -141.02441406 821.1730957 C-141.02320557 819.31291809 -141.02320557 819.31291809 -141.02197266 817.41516113 C-141.01987793 816.13991577 -141.0177832 814.86467041 -141.015625 813.55078125 C-141.01449707 812.24774048 -141.01336914 810.94469971 -141.01220703 809.60217285 C-141.00927395 806.40144558 -141.00516974 803.20072431 -141 800 C-148.79016991 799.95318222 -156.58030544 799.91788433 -164.37058163 799.89637566 C-167.98986296 799.88604058 -171.60904644 799.87207535 -175.22827148 799.84912109 C-194.15624798 799.73226134 -212.370611 800.21779143 -231 804 C-230.79503906 802.8759375 -230.59007812 801.751875 -230.37890625 800.59375 C-227.82149465 785.1607668 -227.5004574 769.80554217 -227.25154114 754.20385742 C-226.77518731 725.232379 -226.77518731 725.232379 -224 713 C-224.5983667 713.17128418 -225.1967334 713.34256836 -225.81323242 713.51904297 C-242.46825148 718.25659857 -257.48699296 721.7886683 -274.8984375 720.69921875 C-293.54680247 719.55786115 -307.85760859 722.9648998 -325.43554688 729.18383789 C-327.94419945 729.98224093 -330.41063877 730.53590769 -333 731 C-332.72325439 730.12601563 -332.44650879 729.25203125 -332.16137695 728.3515625 C-322.19626869 696.69549331 -315.2489764 666.42055038 -316 633 C-316.99 633.33 -317.98 633.66 -319 634 C-321.7024848 634.17617697 -324.388282 634.30410837 -327.09375 634.39453125 C-328.76810311 634.46041808 -330.44241844 634.5272707 -332.11669922 634.5949707 C-332.99549744 634.62982574 -333.87429565 634.66468079 -334.77972412 634.70059204 C-357.2313673 635.62421805 -379.22638753 637.3814474 -400.81640625 644.046875 C-404 645 -404 645 -406 645 C-405.72285156 643.80503906 -405.44570313 642.61007812 -405.16015625 641.37890625 C-404.79401026 639.77349691 -404.4281396 638.16802475 -404.0625 636.5625 C-403.88009766 635.77939453 -403.69769531 634.99628906 -403.50976562 634.18945312 C-403.33251953 633.40634766 -403.15527344 632.62324219 -402.97265625 631.81640625 C-402.81031494 631.10943604 -402.64797363 630.40246582 -402.48071289 629.67407227 C-401.18435394 622.46278755 -400.84114452 615.2943018 -400.75390625 607.98046875 C-400.72092461 606.05012641 -400.6877138 604.11978798 -400.65429688 602.18945312 C-400.60738046 599.2064927 -400.56298073 596.2235428 -400.52319336 593.24047852 C-400.37784291 582.8091906 -400.10264331 572.43874841 -399.08984375 562.05078125 C-399.01351212 561.25343063 -398.93718048 560.45608002 -398.85853577 559.63456726 C-398.32044695 554.60762242 -397.32407 549.87966798 -396 545 C-396.84338676 545.23694077 -396.84338676 545.23694077 -397.70381165 545.47866821 C-400.087328 546.01982715 -402.29903371 546.21652033 -404.73901367 546.34130859 C-405.67907761 546.39161224 -406.61914154 546.44191589 -407.58769226 546.4937439 C-409.11242912 546.57031723 -409.11242912 546.57031723 -410.66796875 546.6484375 C-412.86524731 546.76799175 -415.06251247 546.88779225 -417.25976562 547.0078125 C-420.68775056 547.19076743 -424.11581684 547.37132956 -427.54418945 547.546875 C-446.15597412 548.50896446 -464.55870281 550.30457247 -483 553 C-482.87832962 552.45572357 -482.75665924 551.91144714 -482.63130188 551.35067749 C-482.08510459 548.90098502 -481.54206877 546.45060926 -481 544 C-480.83607758 543.26179016 -480.67215515 542.52358032 -480.50326538 541.76300049 C-477.49661743 528.04223659 -475.72971506 514.34030767 -474.3125 500.375 C-473.99623386 497.31976792 -473.67728157 494.26486076 -473.35404968 491.21035767 C-473.15589538 489.33222381 -472.96203378 487.45363075 -472.77302551 485.57455444 C-472.68590805 484.7383255 -472.59879059 483.90209656 -472.5090332 483.04052734 C-472.39722466 481.93854507 -472.39722466 481.93854507 -472.28315735 480.81430054 C-472 479 -472 479 -471 477 C-472.19625 477.28875 -473.3925 477.5775 -474.625 477.875 C-482.5723371 479.64107491 -490.83666234 481.21482468 -499 481 C-497.65380759 478.05038614 -496.1242524 475.80712386 -493.9609375 473.3984375 C-493.09082031 472.41617188 -493.09082031 472.41617188 -492.203125 471.4140625 C-490.97701048 470.04647323 -489.7504425 468.67929038 -488.5234375 467.3125 C-487.9459375 466.66023438 -487.3684375 466.00796875 -486.7734375 465.3359375 C-486.24153809 464.74345215 -485.70963867 464.1509668 -485.16162109 463.54052734 C-483.79931231 462.05541732 -483.79931231 462.05541732 -484 460 C-485.08192627 459.59273682 -486.16385254 459.18547363 -487.27856445 458.76586914 C-562.91377844 430.24016533 -562.91377844 430.24016533 -577 402 C-577 401.34 -577 400.68 -577 400 C-576.27635254 399.98018066 -575.55270508 399.96036133 -574.80712891 399.93994141 C-535.41455949 398.80980112 -500.59514612 392.30507075 -468.51953125 367.80078125 C-466 366 -466 366 -464 366 C-464 365.34 -464 364.68 -464 364 C-464.72437256 363.71785645 -465.44874512 363.43571289 -466.19506836 363.14501953 C-485.24262446 355.3694918 -511.62243852 343.44693592 -520.15625 323.265625 C-520.4346875 322.51796875 -520.713125 321.7703125 -521 321 C-518.08319624 321.14339935 -515.16658083 321.28968539 -512.25 321.4375 C-511.04150391 321.49647461 -511.04150391 321.49647461 -509.80859375 321.55664062 C-505.23766982 321.79058555 -500.68738894 322.10725863 -496.12890625 322.51953125 C-457.8687058 325.77773639 -420.04564931 318.1095837 -385.37011719 301.89526367 C-384.16597168 301.33222534 -384.16597168 301.33222534 -382.9375 300.7578125 C-381.86822266 300.24951904 -381.86822266 300.24951904 -380.77734375 299.73095703 C-379 299 -379 299 -377 299 C-379.81552984 295.99278148 -382.63181054 293.81548307 -386.1484375 291.6796875 C-387.14713867 291.06714111 -388.14583984 290.45459473 -389.17480469 289.82348633 C-390.23086914 289.18048584 -391.28693359 288.53748535 -392.375 287.875 C-416.00865488 273.25092803 -416.00865488 273.25092803 -425.625 263.8125 C-426.1106543 263.33723877 -426.59630859 262.86197754 -427.09667969 262.37231445 C-430.50768177 258.87380436 -432.73043707 255.27807285 -435 251 C-427.37753171 251.56579914 -419.94999109 252.6074899 -412.4375 254 C-368.79986473 262.05617882 -316.11815683 252.98915104 -277 232 C-276.34 231.34 -275.68 230.68 -275 230 C-276.21562622 229.46427368 -276.21562622 229.46427368 -277.45581055 228.91772461 C-280.53109012 227.5594196 -283.60418413 226.19637581 -286.67602539 224.83032227 C-287.99291859 224.24580006 -289.31059926 223.663048 -290.62915039 223.08227539 C-324.50510176 208.1541091 -324.50510176 208.1541091 -334 193 C-334 192.34 -334 191.68 -334 191 C-333.4237085 191.12117187 -332.84741699 191.24234375 -332.25366211 191.3671875 C-282.79562704 201.5094248 -228.91299917 188.87799491 -184 167 C-186.92169527 163.89306011 -189.96007336 161.53149263 -193.5078125 159.171875 C-194.57773437 158.45386719 -195.64765625 157.73585937 -196.75 156.99609375 C-197.87465024 156.24687055 -198.99965188 155.49817457 -200.125 154.75 C-220.6671807 141.0794944 -220.6671807 141.0794944 -227.9375 132.875 C-228.64777344 132.08867187 -229.35804688 131.30234375 -230.08984375 130.4921875 C-232.46999874 127.38679101 -235 124.03084462 -235 120 C-226.98894702 120.56186481 -219.12738573 121.49687218 -211.20703125 122.8125 C-210.13555344 122.98628174 -209.06407562 123.16006348 -207.96012878 123.33911133 C-204.57686265 123.88840821 -201.19463226 124.44376802 -197.8125 125 C-194.41952878 125.55539348 -191.02634676 126.10941477 -187.63273621 126.66088867 C-185.53314118 127.00233418 -183.43392235 127.34610427 -181.3351593 127.69262695 C-172.58434857 129.12008139 -164.01530184 130.1496754 -155.14453125 130.23828125 C-154.3286705 130.2480751 -153.51280975 130.25786896 -152.67222595 130.26795959 C-135.45528735 130.4322498 -118.73775865 130.56299963 -102 126 C-101.11957031 125.76442383 -100.23914063 125.52884766 -99.33203125 125.28613281 C-90.03509827 122.74970138 -80.8107036 119.94163056 -72 116 C-75.11184399 108.91191091 -81.93764568 104.00528692 -87.671875 99.02734375 C-88.44015625 98.35832031 -89.2084375 97.68929687 -90 97 C-90.72993164 96.36602295 -90.72993164 96.36602295 -91.47460938 95.71923828 C-101.7948454 86.69060305 -112.57967826 76.38798595 -117 63 C-116.67 62.01 -116.34 61.02 -116 60 C-114.18918945 60.59687622 -114.18918945 60.59687622 -112.34179688 61.20581055 C-80.63531241 71.90648393 -80.63531241 71.90648393 -48 79 C-46.58170898 79.23251465 -46.58170898 79.23251465 -45.13476562 79.46972656 C-16.10438718 84.12951374 14.33636257 83.69983395 43 77 C39.7842145 70.8787241 35.98291484 65.60849816 31.4375 60.4375 C-0.87257977 23.55965391 -0.87257977 23.55965391 0 0 Z " fill="#0B0C0B" transform="translate(606,31)"/>
<path d="M0 0 C6.65853383 0.4802548 12.80205528 1.5407292 19.20703125 3.3984375 C20.94719727 3.883058 22.68743407 4.36742444 24.42773438 4.8515625 C27.10251815 5.60600737 29.77602488 6.36456599 32.44799805 7.12890625 C52.2060324 12.75459832 71.26367518 15.57473887 91.8125 15.375 C92.67674591 15.37034729 93.54099182 15.36569458 94.431427 15.36090088 C122.5629215 15.18433323 148.48688307 9.73073746 175.453125 1.98046875 C187.7063716 -1.40671726 198.93738782 0.18267468 211.25 2.6875 C212.26732712 2.88850311 212.26732712 2.88850311 213.3052063 3.09356689 C223.41949575 5.09323119 233.30250241 7.44791823 243 11 C235.66695093 15.88869938 225.36747401 15.36160118 216.8125 15.625 C215.24145508 15.68300781 215.24145508 15.68300781 213.63867188 15.7421875 C211.09260887 15.83519437 208.54653037 15.92103284 206 16 C207.40425947 16.6462699 208.81100864 17.28713135 210.21875 17.92578125 C211.00185547 18.28325439 211.78496094 18.64072754 212.59179688 19.0090332 C222.16117537 22.94679753 233.0467228 23.11434509 243.25 23.5 C244.27851074 23.54205566 245.30702148 23.58411133 246.36669922 23.62744141 C253.94992416 23.91370198 261.52973939 24.06644906 269.1171875 24.1796875 C271.11165713 24.21268063 273.10612327 24.24588574 275.10058594 24.27929688 C279.04914137 24.34532143 282.99738074 24.39321899 286.94628906 24.43164062 C303.30804134 24.65867461 322.20837594 25.38594422 335 37 C335 37.66 335 38.32 335 39 C311.05318854 50.99478681 286.6730055 61.90957104 260 66 C278.66443424 66.88839208 295.85685494 64.07733154 314.09716797 60.37060547 C336.41904766 55.89886865 365.79380665 51.27102508 386.25 63.9375 C390.33964714 67.02814937 393.35545122 70.06635366 395 75 C395.07051114 77.73865287 395.09357765 80.45027588 395.0625 83.1875 C395.05798828 83.93708984 395.05347656 84.68667969 395.04882812 85.45898438 C395.03706354 87.30602383 395.01912865 89.15302213 395 91 C385.91722234 92.48097047 377.08490579 93.30978072 367.88671875 93.37890625 C366.68578583 93.39549286 365.48485291 93.41207947 364.24752808 93.4291687 C361.70275677 93.46351838 359.15793012 93.49396694 356.61306763 93.52072144 C352.63439608 93.56306517 348.65595943 93.61627384 344.67749023 93.67407227 C340.72053694 93.73135894 336.76358916 93.78855358 332.80659485 93.84294128 C303.13533599 94.25320778 273.44540475 95.04590279 244 99 C247.15054343 101.59752251 250.5619542 103.44401407 254.14331055 105.36230469 C262.70459766 109.94937367 270.45701105 114.84901374 278 121 C278.67289063 121.53238281 279.34578125 122.06476563 280.0390625 122.61328125 C283.11229572 125.12466786 285.70353802 127.76872898 288.25 130.8125 C299.81574098 144.26756732 316.43516125 152.95105941 332 161 C320.56190764 170.40077311 304.45989793 174.7923539 290.75 179.875 C262.71397097 189.8728636 262.71397097 189.8728636 238 206 C237.03449219 206.81855469 236.06898438 207.63710938 235.07421875 208.48046875 C212.72160786 227.91426773 196.35353089 254.2740417 193 284 C193.32685791 283.23445801 193.65371582 282.46891602 193.99047852 281.68017578 C195.2321031 278.78734551 196.48395182 275.89920508 197.74243164 273.01367188 C198.54239446 271.1713044 199.33092049 269.32398434 200.11914062 267.4765625 C205.31857981 255.59213008 212.10062502 246.35408757 221 237 C221.50998535 236.45214844 222.0199707 235.90429688 222.54541016 235.33984375 C238.34388401 218.44109417 256.58125709 205.73833383 277 195 C277.75506836 194.59587891 278.51013672 194.19175781 279.28808594 193.77539062 C299.17117544 183.25682223 321.36057389 176.99731785 343.02001953 171.24365234 C348.23963042 169.84745285 353.09928026 168.28336733 358 166 C357.484375 165.401875 356.96875 164.80375 356.4375 164.1875 C355.7259375 163.1046875 355.7259375 163.1046875 355 162 C356.29764774 158.10705677 357.5749687 157.8645229 361.16015625 155.99609375 C362.25134766 155.42528076 363.34253906 154.85446777 364.46679688 154.26635742 C365.66473105 153.65549429 366.8633165 153.04590691 368.0625 152.4375 C368.66956787 152.12664459 369.27663574 151.81578918 369.90209961 151.49551392 C403.99273221 134.07408293 440.85363813 121.38634916 479 117 C479.80566406 116.90501221 480.61132812 116.81002441 481.44140625 116.7121582 C488.99036942 115.9187554 496.5229921 115.81383233 504.10498047 115.81469727 C506.23295319 115.81251746 508.36040001 115.79430622 510.48828125 115.77539062 C540.83453415 115.64973826 571.13589783 124.70684781 593.22265625 146.2421875 C594.59744141 147.60730469 594.59744141 147.60730469 596 149 C596.88558594 149.84820312 597.77117188 150.69640625 598.68359375 151.5703125 C603.62234312 156.36623655 607.96022392 161.37771657 612.19140625 166.80078125 C617.43610602 173.17824555 622.85985741 175.86416615 631 177 C631.00386719 176.09121094 631.00386719 176.09121094 631.0078125 175.1640625 C631.34478295 167.86303619 633.71136104 161.28863896 639 156 C637.80503906 155.82984375 636.61007812 155.6596875 635.37890625 155.484375 C614.58059833 152.38549924 614.58059833 152.38549924 610.359375 146.84765625 C608.33958896 143.42400794 607 141.01752795 607 137 C616.5432107 133.81892977 628.86767755 136.18903491 638.75 136.9375 C639.90508057 137.02427002 641.06016113 137.11104004 642.25024414 137.20043945 C650.61366868 137.87122289 650.61366868 137.87122289 654 139 C653.53088893 157.8923821 641.68816285 172.76791612 631.2097168 187.55151367 C627.77438377 192.408459 624.49757743 197.31289287 621.375 202.375 C617.02297175 209.24959277 611.90605232 215.2185355 606.51855469 221.28417969 C604.0636324 224.05800507 601.65103706 226.86699455 599.25 229.6875 C598.79399414 230.22149414 598.33798828 230.75548828 597.86816406 231.30566406 C595.01119174 234.68963055 592.40624606 238.18071218 589.875 241.8125 C582.04744501 252.71403407 571.83926964 259.19095759 559 263 C523.27905008 266.63098406 493.09188492 252.53954232 462 237 C459.79308646 235.9034089 457.58605984 234.80704536 455.37890625 233.7109375 C448.14854504 230.11148973 440.92789971 226.49302178 433.73046875 222.828125 C414.24840604 212.93521278 394.15334279 204.41775137 374 196 C375.68152073 192.25979502 377.69039473 190.43865652 381 188 C367.96651151 187.65600764 355.70901703 187.9543122 343 191 C342.31518555 191.16097168 341.63037109 191.32194336 340.92480469 191.48779297 C319.75598901 196.63897042 301.63301593 207.12275002 285 221 C284.04609375 221.76828125 283.0921875 222.5365625 282.109375 223.328125 C273.78637191 230.14429975 266.16195325 237.64968281 258.5625 245.25 C258.04226257 245.76933105 257.52202515 246.28866211 256.98602295 246.82373047 C251.10779749 252.70311548 245.38631655 258.66119832 240 265 C239.05094067 266.08331338 238.10046901 267.16539144 237.1484375 268.24609375 C231.57159692 274.63920267 226.19329724 281.16594512 221 287.875 C220.46036621 288.56392334 219.92073242 289.25284668 219.36474609 289.96264648 C214.53748027 296.27423202 210.13598926 302.84064421 210 311 C211.16356075 317.15856084 212.98332521 323.07326578 215 329 C215.3403125 328.07703125 215.680625 327.1540625 216.03125 326.203125 C217.35840525 322.62022537 218.7068006 319.04563606 220.06298828 315.47363281 C220.69797075 313.79733204 221.32903738 312.11954366 221.95654297 310.44042969 C229.23841521 291.02938193 229.23841521 291.02938193 236 283 C238.58213738 284.29106869 238.58331075 285.14177086 239.48046875 287.83203125 C239.75375 288.62512695 240.02703125 289.41822266 240.30859375 290.23535156 C240.59863281 291.08581055 240.88867188 291.93626953 241.1875 292.8125 C245.3072687 304.38853076 250.03422823 313.42593671 259 322 C258.84853516 321.09757568 258.69707031 320.19515137 258.54101562 319.26538086 C257.97741633 315.89093849 257.41891919 312.51573122 256.86376953 309.13989258 C256.62327131 307.68382919 256.38079185 306.22809152 256.13623047 304.77270508 C255.78341411 302.67092762 255.43793125 300.56805041 255.09375 298.46484375 C254.88427734 297.202771 254.67480469 295.94069824 254.45898438 294.64038086 C254.00633804 291.05026942 253.91855477 287.61413196 254 284 C258.88595572 288.10071284 263.50770869 292.34850185 268 296.875 C268.61738037 297.49358887 269.23476074 298.11217773 269.87084961 298.74951172 C272.88342919 301.78801711 275.81213095 304.84385798 278.5625 308.125 C302.64124961 336.27677193 338.56032029 353.44560256 371.11352539 369.54003906 C381.57215916 374.73198834 391.80780537 380.30583035 402 386 C402.63921387 386.35433105 403.27842773 386.70866211 403.93701172 387.07373047 C409.28744705 390.04822526 414.31005219 393.1733655 419.1875 396.875 C430.67066158 405.38410534 443.32719494 411.03946404 457 415 C457.53698963 434.59599073 456.38286595 449.77770874 442.44140625 464.77734375 C431.929862 474.34705364 417.64711151 481.39214293 404 485 C404.19335938 484.29875 404.38671875 483.5975 404.5859375 482.875 C404.97652344 481.451875 404.97652344 481.451875 405.375 480 C405.63023437 479.071875 405.88546875 478.14375 406.1484375 477.1875 C406.56996094 475.6096875 406.56996094 475.6096875 407 474 C407.3609375 472.783125 407.721875 471.56625 408.09375 470.3125 C409.35604851 465.22941874 409.21836773 460.20704664 409.125 455 C409.11146484 453.55173828 409.11146484 453.55173828 409.09765625 452.07421875 C409.07430635 449.71587901 409.04156047 447.35807714 409 445 C406.0559799 447.78296867 403.79142179 450.62315775 401.5625 454 C398.11260331 459.00529883 395.15858507 462.7817871 389 464 C387.61540223 464.08853141 386.22726722 464.13059288 384.83984375 464.1328125 C384.0506958 464.13474609 383.26154785 464.13667969 382.44848633 464.13867188 C381.61986084 464.13416016 380.79123535 464.12964844 379.9375 464.125 C379.09147217 464.12306641 378.24544434 464.12113281 377.3737793 464.11914062 C371.20475765 464.07667294 365.12812966 463.72479986 359 463 C358.78907715 462.48203857 358.5781543 461.96407715 358.36083984 461.43041992 C348.04014678 436.19988133 337.50188421 421.0600277 312 410 C290.14821794 401.19132709 266.64170483 401.50332818 244.98046875 410.37841797 C232.60717489 415.65717742 221.18613721 422.14615557 211 431 C210.18015625 431.68707031 209.3603125 432.37414062 208.515625 433.08203125 C191.6376978 447.62744988 181.15256608 466.72467693 170.80126953 486.12988281 C167.38033027 492.52264073 163.84089908 498.81138969 160.0625 505 C159.63831787 505.69875244 159.21413574 506.39750488 158.77709961 507.11743164 C155.7841986 511.9553764 152.47666534 516.49911368 149 521 C148.34 520.67 147.68 520.34 147 520 C144.86840959 511.49121331 144.64343552 502.66418351 144.6875 493.9375 C144.69241455 492.76501709 144.6973291 491.59253418 144.70239258 490.38452148 C144.88988027 476.28640825 147.13937084 462.9867087 150.4375 449.3125 C150.63045654 448.51078369 150.82341309 447.70906738 151.0222168 446.88305664 C153.46290172 437.37801666 156.61976328 428.60938415 165.1875 423.1875 C169.8665674 420.48295732 174.71793118 418.24865246 179.625 416 C193.61773371 409.52162974 201.24064988 401.65755408 207 387.05078125 C208.51076326 382.44177302 209.36673541 377.80146883 210 373 C209.31035156 373.89460938 208.62070312 374.78921875 207.91015625 375.7109375 C187.9948084 401.41011601 169.43508155 408.12203991 138.94384766 416.39770508 C131.27776481 418.48486806 123.70232465 420.66088542 116.20068359 423.29638672 C114 424 114 424 112 424 C112.49743842 419.60596067 113.11150561 415.2821004 113.9375 410.9375 C116.81010858 395.21077493 117.51741229 379.91329706 117.49609375 363.9609375 C117.54203845 352.15724674 119.10686828 342.57514846 125.0625 332.125 C129.50264356 323.59229987 130.69683425 314.4330071 132 305 C131.34 305 130.68 305 130 305 C130 305.66 130 306.32 130 307 C125.83801129 311.53920823 120.60327642 315.16296156 115.625 318.75 C114.60664062 319.48734375 113.58828125 320.2246875 112.5390625 320.984375 C103.58424729 326.49691338 93.09011314 326.80242499 82.88790894 327.70761108 C68.12113184 329.02573899 53.57793264 330.73301967 39.02294922 333.60693359 C36.35719805 334.12489876 33.68115578 334.56979834 31 335 C31.2165625 333.66775391 31.2165625 333.66775391 31.4375 332.30859375 C32.66801002 323.84029214 33.19300139 315.56085267 33.1875 307 C33.1884668 305.55065063 33.1884668 305.55065063 33.18945312 304.07202148 C33.14795524 298.62117977 32.74401871 293.39699722 32 288 C30.63317024 270.63454 36.78414462 254.90630409 43 239 C42.12601563 239.56267578 42.12601563 239.56267578 41.234375 240.13671875 C28.52416012 248.07061074 16.49882037 252.25686832 1.5546875 252.37890625 C0.46721222 252.39590073 -0.62026306 252.4128952 -1.74069214 252.43040466 C-5.20206964 252.48324054 -8.66343981 252.5236359 -12.125 252.5625 C-16.6693562 252.62103161 -21.21359984 252.6851453 -25.7578125 252.75390625 C-26.83846985 252.76982819 -27.9191272 252.78575012 -29.03253174 252.80215454 C-36.71816557 252.93301711 -44.34431468 253.27679906 -52 254 C-51.92313965 253.21802246 -51.8462793 252.43604492 -51.76708984 251.63037109 C-50.50253005 238.28891852 -50.57209268 224.80001767 -51.5 211.4375 C-52.68324849 193.95367907 -49.71261035 181.70801641 -42 166 C-42.85980469 166.26554688 -43.71960938 166.53109375 -44.60546875 166.8046875 C-46.37857422 167.33449219 -46.37857422 167.33449219 -48.1875 167.875 C-49.91033203 168.39707031 -49.91033203 168.39707031 -51.66796875 168.9296875 C-61.73375163 171.60660044 -71.87171673 172.36510916 -82.25 172.3125 C-83.43021729 172.30686035 -84.61043457 172.3012207 -85.82641602 172.29541016 C-105.81291364 172.01916845 -126.18151986 167.23618466 -144 158 C-138.34492846 139.84722036 -128.11350816 123.72010154 -115.99609375 109.25512695 C-112.16444208 104.54855614 -109.86087102 100.0978364 -109 94 C-109.33 93.67 -109.66 93.34 -110 93 C-110.43231934 93.41773682 -110.86463867 93.83547363 -111.31005859 94.26586914 C-115.5003714 98.29869742 -119.73995971 102.27090072 -124.03515625 106.19189453 C-125.59990538 107.63182147 -127.1337048 109.10536218 -128.65625 110.58984375 C-133.5663424 114.81701837 -137.88875327 115.51995259 -144.25 115.1875 C-147.51911355 114.9041607 -150.75396828 114.4774482 -154 114 C-154.88896973 113.87125488 -155.77793945 113.74250977 -156.69384766 113.60986328 C-179.18232645 110.20420392 -198.75957148 103.22266862 -219 93 C-219 92.34 -219 91.68 -219 91 C-217.95400635 90.82984375 -216.9080127 90.6596875 -215.83032227 90.484375 C-215.12567337 90.369729 -214.42102448 90.25508301 -213.69502258 90.13696289 C-212.07287105 89.87306474 -210.45070873 89.60923289 -208.82853699 89.34545898 C-204.13765159 88.5825035 -199.44703959 87.81791722 -194.75683594 87.05078125 C-185.33674065 85.51134854 -175.91556945 83.98139829 -166.48651123 82.49771118 C-117.85175705 78.60123301 -117.85175705 78.60123301 -75 62 C-75.57854736 61.75878418 -76.15709473 61.51756836 -76.75317383 61.26904297 C-104.34812767 49.72149786 -104.34812767 49.72149786 -114 42 C-114 41.34 -114 40.68 -114 40 C-106.35218226 39.01994528 -98.77437076 38.85173023 -91.07014656 38.83076859 C-87.36350068 38.81925815 -83.6569911 38.78799309 -79.95043945 38.76000977 C-79.17308536 38.75449978 -78.39573126 38.74898979 -77.59482098 38.74331284 C-53.10849569 38.56663708 -28.71855267 38.23969028 -4.3125 36.0625 C-2.86372467 35.93432388 -2.86372467 35.93432388 -1.38568115 35.80355835 C8.80250356 34.88132828 18.91370667 33.72864938 29 32 C28.29915283 31.30962646 27.59830566 30.61925293 26.8762207 29.90795898 C24.2525284 27.32074044 21.63568491 24.72668415 19.02075195 22.13061523 C17.89269758 21.01255649 16.76284693 19.89630682 15.63110352 18.78198242 C13.99528535 17.17069792 12.36625317 15.55280097 10.73828125 13.93359375 C10.23911697 13.44475204 9.7399527 12.95591034 9.22566223 12.45225525 C5.67826999 8.90597914 2.79671581 5.16844896 0 1 C0 0.67 0 0.34 0 0 Z " fill="#EA2724" transform="translate(656,88)"/>
<path d="M0 0 C0.06633109 4.24518972 0.09394486 8.30954349 -0.48046875 12.53125 C-2.3912354 27.1741887 -1.87202453 42.21130336 1.5 56.5625 C7.30044116 81.31849845 7.30044116 81.31849845 1.75 91.25 C-8.35996849 103.29692507 -27.52624049 104.1284466 -42 106.0625 C-43.87534424 106.31628418 -43.87534424 106.31628418 -45.78857422 106.57519531 C-53.55497777 107.60332015 -61.32464058 108.52179323 -69.125 109.25 C-69.96933594 109.33000244 -70.81367188 109.41000488 -71.68359375 109.49243164 C-77.7960954 110.01825789 -83.86728019 110.07853139 -90 110 C-90.82944696 103.48149842 -91.15998846 97.11834129 -91.16796875 90.55078125 C-91.17129715 89.57570114 -91.17462555 88.60062103 -91.17805481 87.59599304 C-91.18308979 85.54292264 -91.1854642 83.48984415 -91.18530273 81.43676758 C-91.18748167 78.33856304 -91.20565372 75.24071953 -91.22460938 72.14257812 C-91.2773821 53.81147062 -91.27987308 36.12136999 -78 22 C-63.32332527 8.21113924 -42.47299768 5.4238075 -23.375 2.1875 C-21.45433716 1.85878906 -21.45433716 1.85878906 -19.49487305 1.5234375 C-12.90662932 0.45154585 -6.67409524 -0.25335503 0 0 Z " fill="#EB2724" transform="translate(503,600)"/>
<path d="M0 0 C1.41488117 7.36929089 1.24413329 14.77689975 1.25 22.25 C1.25067474 23.01533051 1.25134949 23.78066101 1.25204468 24.56918335 C1.22154994 46.29198434 -1.12252042 67.33398158 -16.109375 84.40234375 C-30.98938247 99.00772021 -51.20393066 103.2108509 -71.40625 103.09765625 C-72.3715564 103.0962413 -73.33686279 103.09482635 -74.3314209 103.09336853 C-77.38764665 103.0878108 -80.44379673 103.0752663 -83.5 103.0625 C-85.58333227 103.05747953 -87.6666657 103.05291758 -89.75 103.04882812 C-94.83336209 103.03785524 -99.91666826 103.02062011 -105 103 C-105.07546443 97.36648322 -105.12920634 91.7332753 -105.16479492 86.09936523 C-105.1796668 84.1920864 -105.19997049 82.28484037 -105.22631836 80.37768555 C-105.79784013 37.87215456 -105.79784013 37.87215456 -91.6171875 23.2265625 C-80.26882592 13.57198623 -65.81328167 11.72471293 -51.5 10.5625 C-35.03040879 9.09085664 -19.6239168 6.14915982 -3.9296875 0.953125 C-1 0 -1 0 0 0 Z " fill="#EB2724" transform="translate(503,712)"/>
<path d="M0 0 C-0.10957031 0.68320312 -0.21914063 1.36640625 -0.33203125 2.0703125 C-0.90468642 5.71109577 -1.45556714 9.35491576 -2 13 C-2.1124707 13.74556152 -2.22494141 14.49112305 -2.34082031 15.25927734 C-3.72393314 24.53527781 -4.93471371 33.80060227 -5.71875 43.1484375 C-5.80927391 44.20538063 -5.80927391 44.20538063 -5.90162659 45.28367615 C-6.19941329 48.77820946 -6.48051826 52.27273645 -6.73413086 55.77075195 C-7.96182704 70.63520587 -12.31191633 82.4292773 -23.6796875 92.39453125 C-29.48685071 96.41261893 -35.5961666 98.77351898 -42.4375 100.375 C-43.28570312 100.57633545 -44.13390625 100.7776709 -45.0078125 100.98510742 C-55.40868111 103.29845851 -65.96273235 104.77429129 -76.5 106.3125 C-77.88419632 106.51501373 -77.88419632 106.51501373 -79.2963562 106.72161865 C-81.95720779 107.10790704 -84.61891289 107.48737888 -87.28125 107.86328125 C-88.4879409 108.03633034 -88.4879409 108.03633034 -89.7190094 108.21287537 C-90.47238083 108.31705276 -91.22575226 108.42123016 -92.00195312 108.52856445 C-92.98282898 108.66582695 -92.98282898 108.66582695 -93.98352051 108.80586243 C-96.33116925 109.03188349 -98.64296385 109.03086473 -101 109 C-101.0933739 101.40161928 -101.16410227 93.8032993 -101.20724869 86.20447254 C-101.22797466 82.67459924 -101.2560106 79.14512325 -101.30175781 75.61547852 C-101.35421564 71.54179441 -101.37306869 67.4685165 -101.390625 63.39453125 C-101.42159271 61.52653618 -101.42159271 61.52653618 -101.45318604 59.62080383 C-101.45701625 44.40433572 -96.60701267 31.21053132 -86.21875 20.06640625 C-65.47413209 0.74615471 -26.83563729 -0.24512519 0 0 Z " fill="#EB2724" transform="translate(543,482)"/>
<path d="M0 0 C1.06851196 0.00112793 2.13702393 0.00225586 3.23791504 0.00341797 C5.8604366 0.00634898 8.48295081 0.01045171 11.10546875 0.015625 C11.13108887 7.55549381 11.14844747 15.09535116 11.16040039 22.63525391 C11.1653901 25.1935264 11.17218424 27.75179611 11.1809082 30.31005859 C11.34191985 78.78403598 11.34191985 78.78403598 -1.01953125 91.453125 C-14.32937428 102.48819486 -35.65750231 105.66976142 -51.89453125 110.015625 C-52.99829102 110.31275391 -54.10205078 110.60988281 -55.23925781 110.91601562 C-56.29338867 111.19123047 -57.34751953 111.46644531 -58.43359375 111.75 C-59.83279053 112.11689941 -59.83279053 112.11689941 -61.26025391 112.49121094 C-63.87921144 113.01257524 -66.23217521 113.11318249 -68.89453125 113.015625 C-70.00196268 108.66093371 -71.10443534 104.30502377 -72.20263672 99.94799805 C-72.57567673 98.47077886 -72.94999123 96.99388084 -73.32568359 95.51733398 C-84.79468198 50.42123232 -84.79468198 50.42123232 -73.89453125 32.015625 C-64.85329388 17.14068459 -52.02599771 7.31810816 -35.10473633 3.16235352 C-23.35846415 0.53801649 -12.0100256 -0.02409512 0 0 Z " fill="#EA2623" transform="translate(595.89453125,568.984375)"/>
<path d="M0 0 C0.14832965 9.21031693 -0.17859497 18.21936735 -1.1875 27.375 C-1.31842041 28.57092773 -1.44934082 29.76685547 -1.58422852 30.99902344 C-2.53600993 39.15407187 -3.80300711 47.2041379 -5.4375 55.25 C-5.63045654 56.21856934 -5.82341309 57.18713867 -6.0222168 58.18505859 C-8.78322429 70.94669861 -14.55531914 79.41022317 -25.58764648 86.51879883 C-35.30108649 92.30472103 -46.31195374 95.50865869 -57 99 C-57.96647461 99.32242676 -58.93294922 99.64485352 -59.92871094 99.97705078 C-96.18001047 112 -96.18001047 112 -112 112 C-112.88635433 106.65034539 -113.17415774 101.47667253 -113.203125 96.05859375 C-113.20882507 95.21386002 -113.21452515 94.36912628 -113.22039795 93.49879456 C-113.22980262 91.71624993 -113.23636379 89.93368828 -113.24023438 88.15112305 C-113.2498846 85.469567 -113.2809283 82.78879679 -113.3125 80.10742188 C-113.39789972 66.375974 -113.17077776 52.12077472 -104 41 C-93.42995418 30.48472126 -80.21483152 27.86376742 -66.17871094 24.65087891 C-53.57083596 21.74527437 -41.96173357 17.68244006 -30.8125 10.9375 C-21.19382352 5.26494721 -11.44170946 -0.21625224 0 0 Z " fill="#EB2724" transform="translate(635,663)"/>
<path d="M0 0 C-0.26554688 0.90878906 -0.53109375 1.81757813 -0.8046875 2.75390625 C-5.1186714 18.10476137 -6.33998347 33.3506358 -7.21533203 49.21508789 C-7.98354985 62.26212781 -9.07444254 73.52886741 -18.8125 83.0625 C-41.16662281 101.50190736 -74.42184984 104.87138376 -102 109 C-102.60624243 79.46252147 -103.19497323 44.94829466 -85.75 19.75 C-70.2268675 4.2268675 -48.45490157 2.85520925 -27.71655273 1.00976562 C-24.7779837 0.74691254 -21.84123127 0.46797322 -18.90429688 0.1875 C-17.02612843 0.01467952 -15.14787587 -0.15722987 -13.26953125 -0.328125 C-12.3966597 -0.41137024 -11.52378815 -0.49461548 -10.62446594 -0.5803833 C-9.81229111 -0.65085876 -9.00011627 -0.72133423 -8.16333008 -0.79394531 C-7.09868279 -0.89029266 -7.09868279 -0.89029266 -6.01252747 -0.98858643 C-3.84907392 -1.00085594 -2.068404 -0.60975097 0 0 Z " fill="#EB2724" transform="translate(576,370)"/>
<path d="M0 0 C1.35611813 0.00502686 2.71223808 0.00958766 4.06835938 0.01367188 C7.35811994 0.02537921 10.64778594 0.04177789 13.9375 0.0625 C13.85252594 7.41767655 13.75743125 14.77265229 13.64997292 22.12753677 C13.60036336 25.54396891 13.5540355 28.96037527 13.515625 32.37695312 C13.47115272 36.31917596 13.41165555 40.26110826 13.3515625 44.203125 C13.34001129 45.40986877 13.32846008 46.61661255 13.31655884 47.85992432 C13.03205429 64.47366347 10.08425868 77.58344755 -1.71484375 89.875 C-13.93016263 101.25699429 -27.16669111 102.6972247 -43.125 103.1875 C-46.47043549 103.30606584 -49.81535107 103.43517794 -53.16015625 103.5703125 C-54.38359238 103.61807831 -54.38359238 103.61807831 -55.63174438 103.66680908 C-64.15741378 104.03877001 -72.59907825 104.99890638 -81.0625 106.0625 C-80.85173828 105.21824463 -80.64097656 104.37398926 -80.42382812 103.50415039 C-77.7180898 91.58537306 -77.60214166 79.98900701 -77.55126953 67.81176758 C-77.44597829 50.319063 -76.5360939 32.16783682 -63.796875 18.640625 C-46.04633127 2.48922935 -22.98283334 -0.14725324 0 0 Z " fill="#EA2724" transform="translate(382.0625,630.9375)"/>
<path d="M0 0 C0.69895386 0.00141495 1.39790771 0.0028299 2.11804199 0.00428772 C4.31832429 0.00981955 6.51849923 0.02235848 8.71875 0.03515625 C10.22395685 0.04018009 11.72916532 0.04474143 13.234375 0.04882812 C16.89586735 0.05976648 20.55729817 0.07698266 24.21875 0.09765625 C25.33188763 61.11665575 25.33188763 61.11665575 11.03515625 78.3515625 C0.65916364 88.32590378 -13.56816869 89.59913846 -27.21875 91.16015625 C-27.93080597 91.24414673 -28.64286194 91.32813721 -29.37649536 91.41467285 C-47.07942559 93.49966108 -64.93970052 95.3671133 -82.78125 95.09765625 C-77.07757876 34.74089643 -77.07757876 34.74089643 -59.3125 18.16015625 C-43.25883935 5.07939572 -20.40534454 -0.08227962 0 0 Z " fill="#EB2724" transform="translate(736.78125,425.90234375)"/>
<path d="M0 0 C-7.47012145 72.69557101 -7.47012145 72.69557101 -26 88 C-36.03701712 95.15076664 -46.03679783 97.82175054 -58.2421875 98.46484375 C-59.65365212 98.54350709 -61.06511024 98.62228714 -62.4765625 98.70117188 C-64.65875539 98.81930526 -66.841016 98.93572743 -69.0234375 99.04956055 C-79.42323899 99.5983596 -89.68285384 100.5754168 -100 102 C-100.44281435 37.8055449 -100.44281435 37.8055449 -80.8125 16.3125 C-65.66699762 2.04402003 -44.5333912 1.54947003 -24.875 0.375 C-24.22055908 0.33487793 -23.56611816 0.29475586 -22.8918457 0.25341797 C-15.2683398 -0.14186812 -7.63109848 -0.03155761 0 0 Z " fill="#EB2724" transform="translate(650,455)"/>
<path d="M0 0 C-0.75817678 14.77828323 -1.66207537 29.48115534 -3.875 44.125 C-4.02420898 45.1464209 -4.17341797 46.1678418 -4.32714844 47.22021484 C-6.94948403 63.55752644 -12.55155649 75.94145341 -26 86 C-41.81200913 96.48937507 -62.71908809 100.05408079 -81 103.9375 C-81.93505371 104.13682129 -82.87010742 104.33614258 -83.83349609 104.54150391 C-90.52799993 105.88663323 -97.1895108 106.55503021 -104 107 C-103.5690111 96.33333514 -101.71990621 86.04674699 -99.72631836 75.58154297 C-99.19143698 72.77068924 -98.66811915 69.95786999 -98.14648438 67.14453125 C-96.54499456 58.58018531 -94.86201134 50.0389385 -92.91015625 41.546875 C-92.75862595 40.8742865 -92.60709564 40.201698 -92.45097351 39.50872803 C-89.81487175 28.37684941 -84.14198077 18.2693095 -74.83984375 11.40625 C-66.75055499 6.49846282 -57.46956396 5.78742303 -48.22265625 5 C-47.33066025 4.91878906 -46.43866425 4.83757812 -45.51963806 4.75390625 C-42.70102284 4.497499 -39.88187347 4.24792086 -37.0625 4 C-22.02294113 2.80963296 -22.02294113 2.80963296 -7.15405273 0.3671875 C-4.73740384 -0.04476308 -2.446911 -0.06030455 0 0 Z " fill="#EB2724" transform="translate(464,409)"/>
<path d="M0 0 C3.72090858 66.9099097 3.72090858 66.9099097 -8.75 81.875 C-25.20461894 98.78084249 -54.85903228 100.54725317 -77.19970703 101.07568359 C-80.52964762 101.0975687 -83.85759919 101.08785953 -87.1875 101.0625 C-88.90163086 101.05573242 -88.90163086 101.05573242 -90.65039062 101.04882812 C-93.4336511 101.03718268 -96.21679572 101.02082997 -99 101 C-88.52622085 31.66874594 -88.52622085 31.66874594 -69.80859375 16.1875 C-55.82966185 6.18468648 -36.94119985 4.1460927 -20.375 1.75 C-19.16529541 1.5746875 -17.95559082 1.399375 -16.70922852 1.21875 C-11.09543167 0.44146108 -5.66892489 -0.23274178 0 0 Z " fill="#EB2724" transform="translate(427,519)"/>
<path d="M0 0 C0.86845047 -0.00095673 1.73690094 -0.00191345 2.63166809 -0.00289917 C4.45618767 -0.00357618 6.28070973 -0.00175548 8.10522461 0.00244141 C10.89637638 0.00781605 13.68736868 0.00247015 16.47851562 -0.00390625 C18.25651077 -0.00324577 20.03450582 -0.00196522 21.8125 0 C22.64484665 -0.00202423 23.4771933 -0.00404846 24.33476257 -0.00613403 C25.50166374 -0.00140579 25.50166374 -0.00140579 26.69213867 0.00341797 C27.37273849 0.00421356 28.05333832 0.00500916 28.75456238 0.00582886 C30.83811315 0.14133774 32.70053054 0.56849895 34.70703125 1.1328125 C36.27650137 21.29137867 37.18496446 42.15738384 34.58203125 62.2578125 C34.48954102 63.06041504 34.39705078 63.86301758 34.30175781 64.68994141 C33.21718083 71.65256512 29.68302443 76.48921646 24.46875 81.12109375 C23.78425781 81.55808594 23.09976563 81.99507813 22.39453125 82.4453125 C21.71777344 82.89519531 21.04101562 83.34507812 20.34375 83.80859375 C12.81451783 87.58994146 4.68226281 89.10277872 -3.54296875 90.6328125 C-4.68612549 90.84784424 -5.82928223 91.06287598 -7.00708008 91.28442383 C-25.03464056 94.61998039 -43.01646562 96.73503518 -61.29296875 98.1328125 C-60.62393075 78.76416249 -57.77375987 59.29611765 -53.35546875 40.4453125 C-53.12706299 39.44967285 -52.89865723 38.4540332 -52.66333008 37.42822266 C-49.53278767 24.77906642 -43.93369282 14.73593373 -33.04296875 7.3203125 C-22.87749238 1.19030683 -11.6640325 -0.0285749 0 0 Z " fill="#EB2724" transform="translate(639.29296875,350.8671875)"/>
<path d="M0 0 C0.17051397 27.33732493 -0.07948402 53.34204831 -7 80 C-6.31075439 79.65743164 -5.62150879 79.31486328 -4.91137695 78.96191406 C-1.71662082 77.38121287 1.48531496 75.81559359 4.6875 74.25 C5.77095703 73.71117187 6.85441406 73.17234375 7.97070312 72.6171875 C25.67797256 64 25.67797256 64 35 64 C34.30251948 77.71711684 28.6375199 89.08662756 18.5625 98.3125 C12.27193562 103.29649853 5.45582496 105.73554273 -2.3125 107.4375 C-3.22531738 107.64213867 -4.13813477 107.84677734 -5.07861328 108.05761719 C-24.94813687 112.29120791 -46.68849229 116.31736731 -67 116 C-67.08942982 95.38145854 -66.68602412 74.78004989 -64.6875 54.25 C-64.52930786 52.51351196 -64.52930786 52.51351196 -64.36791992 50.74194336 C-63.02775127 38.132968 -59.42718214 24.72114916 -49.875 15.75 C-36.75301402 5.64521687 -16.49947953 -0.09416228 0 0 Z " fill="#EA2724" transform="translate(687,533)"/>
<path d="M0 0 C2.71496186 1.35748093 2.70985992 2.60190139 3.6875 5.4375 C8.88084092 18.84090194 19.27939233 27.93928404 30.23046875 36.74609375 C42.33043512 46.59331603 54.1249528 56.95884878 57 73 C56.57421875 75.30078125 56.57421875 75.30078125 56 77 C54.47816445 75.33424841 52.9575915 73.66734329 51.4375 72 C50.97859375 71.49670166 50.5196875 70.99340332 50.046875 70.47485352 C47.48963276 67.66287199 44.97200614 64.8244712 42.5 61.9375 C26.76218489 43.95142558 7.89726524 31.53271834 -16 28 C-41.55159162 26.4111958 -62.77231852 30.28608983 -86 41 C-101.54913702 48.16851947 -116.65705671 54.79896157 -133.56640625 57.99609375 C-134.46597046 58.16639099 -135.36553467 58.33668823 -136.2923584 58.512146 C-146.12753351 60.30394959 -156.02245486 61.41717455 -165.96289062 62.43798828 C-169.05440718 62.75558942 -172.14439351 63.08579089 -175.234375 63.41796875 C-177.21867507 63.62831223 -179.20304751 63.83797435 -181.1875 64.046875 C-182.10200928 64.14369568 -183.01651855 64.24051636 -183.95874023 64.340271 C-187.98862466 64.75230146 -191.94238991 65.12811295 -196 65 C-195.73473833 67.02757487 -195.41008681 69.04740521 -195.0625 71.0625 C-194.88847656 72.18785156 -194.71445312 73.31320313 -194.53515625 74.47265625 C-190.51340532 83.71347327 -179.15692686 87.76241327 -170.625 92 C-144.90099846 104.86200077 -124.07677213 123.45313887 -104.11352539 143.97241211 C-88.13954544 160.36558786 -67.29317897 170.91253169 -44.21557617 171.34179688 C-31.2626542 171.45024959 -18.96223159 170.69072169 -6.1875 168.5 C4.08979758 166.74098093 14.09822561 165.52644996 24.5625 165.5625 C26.13124878 165.56636719 26.13124878 165.56636719 27.73168945 165.5703125 C41.56767319 165.84422458 51.02076228 170.56458994 61 180 C57.33294872 181.22235043 56.06288824 180.59199734 52.375 179.5625 C27.2875641 174.1430032 0.67144954 180.00190931 -23.8046875 186.203125 C-42.7725305 190.48127353 -64.11362841 187.600323 -80.52734375 177.328125 C-90.21393627 170.97428898 -98.90197026 163.39278243 -107.33203125 155.48046875 C-109.52975844 153.43719384 -111.76341064 151.48851198 -114.0625 149.5625 C-117.31182303 146.74597615 -120.17668523 143.68712778 -123.0625 140.5 C-139.94164229 121.88692296 -156.48583269 109.20097458 -179.47265625 99.0078125 C-199.4627744 90.07527166 -199.4627744 90.07527166 -203.44628906 80.10717773 C-204.57137757 75.82559091 -204.30461538 71.45582837 -204.1875 67.0625 C-204.17396484 66.09248047 -204.16042969 65.12246094 -204.14648438 64.12304688 C-204.11138677 61.74810871 -204.06222275 59.37435622 -204 57 C-198.85370864 55.0418989 -193.8615955 54.30430597 -188.4375 53.625 C-187.49366455 53.4997998 -186.5498291 53.37459961 -185.57739258 53.24560547 C-181.1911433 52.66397602 -176.80306658 52.09967293 -172.41210938 51.5546875 C-157.85239107 49.7452649 -143.88909152 47.85540179 -130 43 C-128.0002271 42.33265241 -126.00030518 41.66575043 -124 41 C-124.93307421 39.55962331 -125.87165077 38.12281015 -126.8125 36.6875 C-127.33457031 35.88699219 -127.85664062 35.08648437 -128.39453125 34.26171875 C-129.89981595 32.00022173 -129.89981595 32.00022173 -131.69921875 30.33203125 C-133 29 -133 29 -133 27 C-132.14994385 26.96036133 -131.2998877 26.92072266 -130.42407227 26.87988281 C-107.43212558 25.82376881 -107.43212558 25.82376881 -85 21 C-83.07063056 20.42861244 -81.1409157 19.85839048 -79.2109375 19.2890625 C-78.18355469 18.98581055 -77.15617188 18.68255859 -76.09765625 18.37011719 C-75.05480469 18.06235352 -74.01195312 17.75458984 -72.9375 17.4375 C-71.91011719 17.13231445 -70.88273438 16.82712891 -69.82421875 16.51269531 C-48.67596086 10.30496404 -30.98694318 9.88663705 -10 17 C-9.814375 16.21625 -9.62875 15.4325 -9.4375 14.625 C-7.35341997 9.36949385 -4.03199017 4.03199017 0 0 Z " fill="#080807" transform="translate(769,113)"/>
<path d="M0 0 C1.29966202 0.00424484 2.59932404 0.00848969 3.93836975 0.01286316 C7.37274884 0.02424926 10.80673976 0.05366125 14.2409668 0.0869751 C17.75369009 0.11781167 21.26647688 0.13139734 24.77929688 0.14648438 C31.6564082 0.17853812 38.53326352 0.2296576 45.41015625 0.29296875 C45.45418425 3.95048208 45.48052993 7.60792598 45.50390625 11.265625 C45.51647461 12.29192017 45.52904297 13.31821533 45.54199219 14.37561035 C45.62927402 32.62114996 39.32640178 50.07497337 26.54199219 63.26953125 C25.17938609 64.62558185 23.79518529 65.95982841 22.41015625 67.29296875 C21.31574219 68.39898437 21.31574219 68.39898437 20.19921875 69.52734375 C2.34050792 86.65577272 -22.63772979 91.62535806 -46.578125 91.453125 C-50.89846028 91.32526628 -55.17352964 90.92234658 -59.46484375 90.41796875 C-60.1611792 90.33957764 -60.85751465 90.26118652 -61.57495117 90.18041992 C-63.25818446 89.96000406 -64.92718787 89.63565355 -66.58984375 89.29296875 C-67.58984375 87.29296875 -67.58984375 87.29296875 -67.03930664 85.15869141 C-65.92364678 82.07298982 -64.80317481 78.99079279 -63.65234375 75.91796875 C-63.21212891 74.74218262 -62.77191406 73.56639648 -62.31835938 72.35498047 C-58.66378492 62.72544429 -54.72173827 53.2163518 -50.61227417 43.77264404 C-49.94016491 42.22476456 -49.27374708 40.67439904 -48.61355591 39.12139893 C-41.77144558 23.0887541 -32.78011051 8.00635465 -15.89076233 0.92504883 C-10.74131045 -0.48954532 -5.29720304 -0.06538549 0 0 Z " fill="#EB2724" transform="translate(457.58984375,309.70703125)"/>
<path d="M0 0 C0.25890071 7.63810363 -0.49247663 14.8989691 -1.6875 22.4375 C-1.95433594 24.1390625 -1.95433594 24.1390625 -2.2265625 25.875 C-8.49397685 64.21428642 -8.49397685 64.21428642 -21.1875 73.62109375 C-44.15799779 88.38258351 -73.91973392 85.39353493 -100 85 C-99.00140216 66.30771746 -97.81455085 47.4870026 -94 29.125 C-93.84619873 28.37750488 -93.69239746 27.63000977 -93.53393555 26.85986328 C-92.13544411 20.62422823 -90.19243073 15.5589306 -85.3125 11.3125 C-84.68988281 10.75175781 -84.06726563 10.19101562 -83.42578125 9.61328125 C-77.84979691 5.9049374 -71.7636999 4.52550001 -65.18359375 3.9140625 C-64.42549911 3.83684967 -63.66740448 3.75963684 -62.88633728 3.68008423 C-51.30585206 2.56511566 -39.6768168 2.00840589 -28.0625 1.375 C-25.66468934 1.24001262 -23.26690265 1.10459869 -20.86914062 0.96875 C-16.52235138 0.72458071 -12.17554867 0.48078054 -7.82836914 0.24365234 C-6.5341378 0.17275894 -6.5341378 0.17275894 -5.21376038 0.10043335 C-3.47730394 0.02165421 -1.73824254 0 0 0 Z " fill="#EB2724" transform="translate(321,566)"/>
<path d="M0 0 C2.0357072 0.36367048 4.07387067 0.70977073 6.11303711 1.0534668 C16.02928446 2.76658915 16.02928446 2.76658915 17.18139648 3.91870117 C17.34258251 6.45972896 17.44127875 8.97620813 17.49780273 11.52026367 C17.51876511 12.30072556 17.53972748 13.08118744 17.56132507 13.88529968 C17.62793686 16.437994 17.68668849 18.99077974 17.74389648 21.54370117 C17.76407837 22.40683929 17.78426025 23.26997742 17.80505371 24.15927124 C17.92484921 29.311018 18.03319416 34.46291179 18.13458252 39.61505127 C18.17665929 41.68559054 18.22432758 43.75601438 18.27270508 45.82641602 C18.34304828 48.96139297 18.39253106 52.09569993 18.43139648 55.23120117 C18.45274658 56.10405762 18.47409668 56.97691406 18.49609375 57.8762207 C18.54396555 66.67592803 16.32093844 73.7552943 10.15405273 80.13745117 C-7.95688347 96.49108862 -45.20830548 93.29035353 -67.81860352 93.91870117 C-67.33035533 83.68063776 -65.76441554 73.74893008 -63.97216797 63.67211914 C-63.50840264 61.05666733 -63.05839446 58.4391054 -62.60961914 55.82104492 C-55.57982356 15.44409286 -55.57982356 15.44409286 -38.12329102 2.99682617 C-25.97077891 -4.44348736 -13.47745477 -2.40996438 0 0 Z " fill="#EB2724" transform="translate(574.818603515625,269.081298828125)"/>
<path d="M0 0 C0.7535376 -0.00064453 1.5070752 -0.00128906 2.28344727 -0.00195312 C7.73111186 0.0472913 13.03431829 0.5300873 18.4375 1.1875 C29.71362731 2.54308736 41.0012612 2.3250323 52.33764648 2.20117188 C53.06731628 2.19452011 53.79698608 2.18786835 54.54876709 2.18101501 C56.56015847 2.1612174 58.57146935 2.13368412 60.58276367 2.10571289 C63.5 2.1875 63.5 2.1875 64.5 3.1875 C65.72383531 21.20396074 61.31815188 36.07915689 53.5 52.1875 C52.69755859 53.88519531 52.69755859 53.88519531 51.87890625 55.6171875 C45.83853025 67.23440944 36.53901911 71.22500548 24.56640625 75.14453125 C23.2152083 75.50843304 21.8592162 75.85479633 20.5 76.1875 C19.73768066 76.37731445 18.97536133 76.56712891 18.18994141 76.76269531 C7.20920834 79.03291433 -4.09770855 78.40293321 -15.25 78.3125 C-17.41145419 78.30245125 -19.5729129 78.29332875 -21.734375 78.28515625 C-26.98968308 78.26329043 -32.24482008 78.22996279 -37.5 78.1875 C-38.72682068 25.1605354 -38.72682068 25.1605354 -22.171875 7.58203125 C-15.3155257 1.863067 -8.76351971 -0.00805378 0 0 Z " fill="#EB2724" transform="translate(284.5,476.8125)"/>
<path d="M0 0 C0.06993164 0.64098633 0.13986328 1.28197266 0.21191406 1.94238281 C1.78624411 16.25309355 3.56098375 30.51110596 5.72949219 44.74511719 C7.89927963 59.29918852 7.89927963 59.29918852 5.7421875 63.37890625 C5.12601563 64.09949219 4.50984375 64.82007813 3.875 65.5625 C3.14796875 66.41585937 2.4209375 67.26921875 1.671875 68.1484375 C-0.83826526 70.82738836 -3.42413218 73.38372713 -6.0637207 75.93286133 C-28.11594699 97.29549111 -35.96588396 124.6103054 -42 154 C-42.66 154 -43.32 154 -44 154 C-64.46569465 125.97643471 -70.05840678 88.56917725 -66.3125 54.75 C-63.61310704 38.21854516 -55.34075892 25.07024046 -42 15 C-29.74616594 6.87485583 -14.93282241 -0.23070372 0 0 Z " fill="#EA2724" transform="translate(551,788)"/>
<path d="M0 0 C1.67641098 4.09086452 0.2409319 7.71511018 -0.9375 11.75 C-1.13279297 12.44738281 -1.32808594 13.14476562 -1.52929688 13.86328125 C-2.0108246 15.57798973 -2.50425157 17.28934877 -3 19 C-2.30777344 18.67386719 -1.61554688 18.34773438 -0.90234375 18.01171875 C27.45734185 5.34513981 56.215255 12.94669368 85 20 C85 29.81685526 72.53921235 40.31436144 66.0625 47 C62.85032479 50.29112898 62.85032479 50.29112898 62 54.625 C62.495 55.800625 62.495 55.800625 63 57 C63.66836095 58.66598795 64.33524399 60.33257034 65 62 C52.23326542 72.22675597 40.33071933 78.39780717 23.625 78.4375 C21.88911621 78.44330078 21.88911621 78.44330078 20.11816406 78.44921875 C-0.64975918 78.19805717 -21.38580534 75.34055512 -42 73 C-38.95864897 62.47143829 -38.95864897 62.47143829 -36.79296875 57.7578125 C-36.37821289 56.85023193 -35.96345703 55.94265137 -35.53613281 55.00756836 C-35.09108398 54.0563208 -34.64603516 53.10507324 -34.1875 52.125 C-33.71538086 51.10994385 -33.24326172 50.0948877 -32.75683594 49.04907227 C-31.18457264 45.69289485 -29.59481894 42.34551539 -28 39 C-27.71135071 38.39158264 -27.42270142 37.78316528 -27.12530518 37.15631104 C-25.3215321 33.35586839 -23.49848819 29.56560616 -21.65078735 25.78631592 C-20.77056362 23.97970569 -19.90306616 22.16691249 -19.03588867 20.35400391 C-14.340696 10.86242612 -9.44708013 4.81993884 0 0 Z " fill="#EA2724" transform="translate(185,418)"/>
<path d="M0 0 C10.41648626 1.84351046 20.97797938 2.46726183 31.51928711 3.21484375 C24.93754056 17.34676821 17.10238984 28.66964077 6.51928711 40.21484375 C14.93428711 39.71984375 14.93428711 39.71984375 23.51928711 39.21484375 C22.67366211 40.32859375 21.82803711 41.44234375 20.95678711 42.58984375 C19.80862228 44.12977481 18.66291468 45.67154011 17.51928711 47.21484375 C16.98295654 47.9320459 16.44662598 48.64924805 15.89404297 49.38818359 C10.3008441 57.09641618 6.12674706 65.39720136 1.94506836 73.93359375 C-2.52188292 82.60532762 -6.87538824 86.76167409 -15.73852539 90.640625 C-16.68469727 90.93324219 -17.63086914 91.22585938 -18.60571289 91.52734375 C-19.55704102 91.83285156 -20.50836914 92.13835937 -21.48852539 92.453125 C-38.64592943 96.82087146 -57.47923765 94.54360341 -73.48071289 87.21484375 C-72.97282227 86.23386719 -72.46493164 85.25289063 -71.94165039 84.2421875 C-64.06802227 68.89091939 -58.56078711 53.7390902 -54.45922852 36.99951172 C-50.45276638 21.10734901 -44.28343147 10.31115338 -30.09399414 1.625 C-20.19408172 -3.71710521 -10.70807482 -1.96887006 0 0 Z " fill="#EB2724" transform="translate(352.480712890625,372.78515625)"/>
<path d="M0 0 C1.13373047 -0.00322266 2.26746094 -0.00644531 3.43554688 -0.00976562 C11.34039799 0.03978045 18.9123221 0.90883814 26.6875 2.3125 C24.60797516 13.33075758 18.77233864 23.40658958 13.6875 33.3125 C15.62302734 33.29509766 15.62302734 33.29509766 17.59765625 33.27734375 C19.31510271 33.2679588 21.03255075 33.25885936 22.75 33.25 C23.59755859 33.24162109 24.44511719 33.23324219 25.31835938 33.22460938 C30.2236722 33.20566994 34.85194755 33.47923655 39.6875 34.3125 C38.34391368 37.39017309 36.97753846 39.14902142 34.375 41.25 C20.72039345 52.91486425 10.87581882 64.8685747 4.20751953 81.75708008 C2.20544247 86.69099329 -0.34586169 91.82918085 -5.3125 94.3125 C-19.18898912 95.167516 -31.85079923 93.54625953 -45.3125 90.3125 C-47.20181139 89.87625218 -49.09113454 89.44005523 -50.98046875 89.00390625 C-52.82093234 88.56771124 -54.6607973 88.12898127 -56.5 87.6875 C-57.36818359 87.48165283 -58.23636719 87.27580566 -59.13085938 87.0637207 C-61.20860125 86.54449553 -63.26383254 85.93665361 -65.3125 85.3125 C-65.6425 84.6525 -65.9725 83.9925 -66.3125 83.3125 C-65.52027501 81.27009797 -64.63421327 79.26394596 -63.7109375 77.27734375 C-61.29069068 71.883501 -59.2990097 66.47867676 -57.6015625 60.81640625 C-57.3815155 60.08714935 -57.16146851 59.35789246 -56.93475342 58.60653687 C-56.03927933 55.61752556 -55.15511698 52.62548494 -54.28613281 49.62866211 C-49.07336192 31.75602647 -41.91747689 15.37849446 -25.94140625 4.56640625 C-17.38536446 0.4854413 -9.38976783 -0.1321014 0 0 Z " fill="#EB2724" transform="translate(387.3125,267.6875)"/>
<path d="M0 0 C1.34220488 0.29018891 2.68465236 0.57925806 4.02734375 0.8671875 C7.27077503 1.56720864 10.51133514 2.27830621 13.75 3 C12.57580158 6.79416697 11.2781643 10.11400148 9.2109375 13.50390625 C8.7164209 14.32117188 8.2219043 15.1384375 7.71240234 15.98046875 C7.18855957 16.83253906 6.6647168 17.68460938 6.125 18.5625 C5.58955566 19.44421875 5.05411133 20.3259375 4.50244141 21.234375 C0.79316591 27.33303379 -2.94910963 33.41207451 -6.7265625 39.46875 C-8.0164661 41.61197445 -9.14844276 43.75765034 -10.25 46 C-9.47760986 45.98259766 -8.70521973 45.96519531 -7.90942383 45.94726562 C0.52359089 45.84132481 8.69664597 46.48457103 17.0625 47.5 C18.29162109 47.64308594 19.52074219 47.78617187 20.78710938 47.93359375 C23.77558604 48.28244317 26.76309413 48.6379897 29.75 49 C28.9690142 53.78411038 27.02504494 56.95856005 24.1875 60.8125 C23.51195068 61.73953735 23.51195068 61.73953735 22.82275391 62.68530273 C14.29485963 74.17791388 5.16387595 81.90868971 -9.3125 84.125 C-30.40671507 86.91164819 -51.48821632 85.15511945 -72.25 81 C-73.32692504 77.69117295 -73.15295704 75.38344598 -72.46484375 71.9921875 C-72.26729492 71.01451416 -72.06974609 70.03684082 -71.86621094 69.02954102 C-71.53024902 67.46804321 -71.53024902 67.46804321 -71.1875 65.875 C-70.95708008 64.79984131 -70.72666016 63.72468262 -70.48925781 62.61694336 C-65.20359304 38.75163481 -56.55342501 15.2576999 -35.92578125 0.55859375 C-24.63187385 -6.01990122 -12.06556801 -2.69201618 0 0 Z " fill="#EA2724" transform="translate(497.25,212)"/>
<path d="M0 0 C2.99238248 1.33314736 4.96108744 2.76052339 7.1796875 5.16015625 C7.77152832 5.78494873 8.36336914 6.40974121 8.97314453 7.0534668 C9.60075684 7.71644775 10.22836914 8.37942871 10.875 9.0625 C21.15838481 19.5857049 31.51082808 26.55821996 46 30 C46.41185547 28.68128906 46.41185547 28.68128906 46.83203125 27.3359375 C49.85886601 18.69073052 54.65756137 11.54884936 61 5 C64.39055013 6.13018338 64.5519878 6.4615779 66.1640625 9.4296875 C66.55916016 10.13746338 66.95425781 10.84523926 67.36132812 11.57446289 C67.77833984 12.33364014 68.19535156 13.09281738 68.625 13.875 C80.38984628 34.49147203 94.30051978 44.40982832 117 51 C116.01 43.08 116.01 43.08 115 35 C161.95272413 38.72485077 161.95272413 38.72485077 177 56 C183.90742045 64.72761908 185.98845032 72.91082296 185 84 C182.88190448 90.13132914 179.22956981 93.84540135 173.5 96.8125 C167.85572084 98.74458017 161.88192047 98.24209124 156 98 C156.433125 97.00742187 156.86625 96.01484375 157.3125 94.9921875 C161.52476658 84.91372762 164.47318014 75.55395239 160.921875 64.70703125 C155.90065221 53.60240392 148.7870399 48.7721383 137.69921875 44.2890625 C132.22553243 42.38165333 126.69008045 41.07752354 121 40 C125.44670371 48.32148411 130.40903405 55.24463354 137 62 C133.1545621 63.28181263 130.08197435 62.57773338 126.18359375 61.92578125 C125.41249771 61.80067673 124.64140167 61.6755722 123.84693909 61.54667664 C122.21138769 61.27875961 120.57646295 61.00699307 118.94213867 60.73168945 C116.47321032 60.31847667 114.00168352 59.9251156 111.52929688 59.53320312 C91.21627247 56.21637367 91.21627247 56.21637367 83.5 49.8125 C82.76910156 49.21179688 82.03820312 48.61109375 81.28515625 47.9921875 C77.96067458 45.09392143 74.69693894 42.13157252 71.44140625 39.15625 C68.11304548 36.21664176 64.60051334 33.59214262 61 31 C61.2165625 32.20398438 61.433125 33.40796875 61.65625 34.6484375 C61.93759013 36.22394224 62.21883521 37.79946396 62.5 39.375 C62.64308594 40.1690625 62.78617188 40.963125 62.93359375 41.78125 C64 47.7734375 64 47.7734375 64 50 C59.73032031 49.37157951 56.38993264 47.87502777 52.546875 45.9375 C51.62634842 45.47610374 51.62634842 45.47610374 50.68722534 45.00538635 C48.7050384 44.00963436 46.72745481 43.00511201 44.75 42 C43.39388439 41.31599378 42.03760133 40.63231946 40.68115234 39.94897461 C31.0554763 35.08926886 21.48398659 30.13136518 12 25 C12.20496094 25.66386719 12.40992188 26.32773438 12.62109375 27.01171875 C12.89050781 27.89472656 13.15992188 28.77773437 13.4375 29.6875 C13.70433594 30.55761719 13.97117187 31.42773438 14.24609375 32.32421875 C14.96344529 34.87025921 15.517541 37.4003423 16 40 C15.17145508 39.75878418 15.17145508 39.75878418 14.32617188 39.51269531 C2.60293874 36.10839273 -9.13021076 32.85412188 -21 30 C-18.36 33.63 -15.72 37.26 -13 41 C-16.67352257 42.22450752 -19.78513896 41.87012571 -23.5703125 41.546875 C-24.32480682 41.48598694 -25.07930115 41.42509888 -25.85665894 41.36236572 C-27.4624777 41.23086138 -29.06803641 41.09614854 -30.67333984 40.95849609 C-33.06666904 40.75496063 -35.46081875 40.56616679 -37.85546875 40.37890625 C-45.71245727 39.7390552 -53.52161972 38.90317056 -61.3046875 37.640625 C-61.99225128 37.53796326 -62.67981506 37.43530151 -63.38821411 37.32952881 C-69.92645043 36.18762824 -74.35726144 32.94844811 -78.875 28.25 C-79.47054687 27.63640625 -80.06609375 27.0228125 -80.6796875 26.390625 C-81.11539063 25.93171875 -81.55109375 25.4728125 -82 25 C-78.97537966 23.48768983 -76.5655657 24.31653921 -73.2421875 24.77734375 C-72.57913605 24.86754288 -71.91608459 24.957742 -71.23294067 25.05067444 C-69.11277877 25.34045997 -66.99393284 25.63887295 -64.875 25.9375 C-63.43888033 26.13533446 -62.00268316 26.33260719 -60.56640625 26.52929688 C-57.04334781 27.01301324 -53.52141915 27.50447474 -50 28 C-50.28875 26.89140625 -50.5775 25.7828125 -50.875 24.640625 C-51.25025062 23.17714757 -51.62523678 21.71360232 -52 20.25 C-52.19078125 19.52039063 -52.3815625 18.79078125 -52.578125 18.0390625 C-53.46515964 14.55428354 -54 11.61876278 -54 8 C-48.85244816 9.50305281 -44.47374107 11.79822404 -39.8125 14.375 C-29.05292937 20.19826352 -19.34406913 24.20922151 -7 24 C-6.85900879 23.41508789 -6.71801758 22.83017578 -6.57275391 22.22753906 C-5.92849196 19.56712242 -5.27682642 16.90857292 -4.625 14.25 C-4.40328125 13.32960937 -4.1815625 12.40921875 -3.953125 11.4609375 C-3.73398437 10.57148438 -3.51484375 9.68203125 -3.2890625 8.765625 C-3.09006348 7.94868164 -2.89106445 7.13173828 -2.68603516 6.29003906 C-2.00788803 4.02633086 -1.1210245 2.07535391 0 0 Z " fill="#070807" transform="translate(726,165)"/>
<path d="M0 0 C15.31313951 1.69600272 30.76461057 0.47746649 46.11157227 -0.28100586 C46.93532505 33.72167844 46.93532505 33.72167844 36.61157227 45.59399414 C16.90569494 59.63443174 -19.81621451 58.16507345 -42.88842773 57.71899414 C-40.17633487 13.06868474 -40.17633487 13.06868474 -32.88842773 2.71899414 C-23.88232322 -4.66730741 -10.83690343 -1.2424819 0 0 Z " fill="#EA2724" transform="translate(185.888427734375,508.281005859375)"/>
<path d="M0 0 C-0.45930512 17.74587974 -8.79407034 34.57244747 -21.53222656 46.68994141 C-37.2375755 60.70772291 -62.55784233 61.66106831 -82.5 64.86328125 C-83.21172363 64.9786322 -83.92344727 65.09398315 -84.65673828 65.21282959 C-87.47657904 65.65809932 -90.13961591 66 -93 66 C-97.08459215 26.6858006 -97.08459215 26.6858006 -88.625 16 C-80.70205139 10.91080673 -71.0029306 8.60323605 -62 6.1875 C-61.18700439 5.96835937 -60.37400879 5.74921875 -59.53637695 5.5234375 C-55.61223749 4.51191418 -52.08946055 3.71142919 -48 4 C-47.32678716 6.24805002 -46.66165877 8.49852224 -46 10.75 C-45.62875 12.00296875 -45.2575 13.2559375 -44.875 14.546875 C-44 18 -44 18 -44 22 C-43.47792969 21.5875 -42.95585938 21.175 -42.41796875 20.75 C-15.1812159 -0.61964147 -15.1812159 -0.61964147 0 0 Z " fill="#EA2724" transform="translate(797,519)"/>
<path d="M0 0 C0.99 0.495 0.99 0.495 2 1 C2.53484522 3.72771064 2.8159414 6.23503086 3 9 C3.08894531 10.09828125 3.17789063 11.1965625 3.26953125 12.328125 C3.7377821 22.39007358 1.55535624 26.93260759 -5.015625 34.2421875 C-6.5112219 35.88304021 -8.01011631 37.52089138 -9.51171875 39.15625 C-32.9072686 65.89402126 -42.25766825 98.575392 -52 132 C-64.99165586 119.00834414 -64.44809224 84.54008162 -64.5 67.1875 C-64.47192636 52.32843619 -64.37585752 35.91557229 -56 23 C-48.92951537 17.09945168 -37.99983905 14.94371133 -29.38134766 12.19165039 C-21.32785297 9.57542335 -13.69395718 6.3795253 -6.06835938 2.70581055 C-5.29556641 2.3375415 -4.52277344 1.96927246 -3.7265625 1.58984375 C-3.05189941 1.25847412 -2.37723633 0.92710449 -1.68212891 0.58569336 C-1.12702637 0.39241455 -0.57192383 0.19913574 0 0 Z " fill="#EA2724" transform="translate(713,642)"/>
<path d="M0 0 C-3.96777583 8.62449024 -8.15928128 16.03489731 -14.08203125 23.4765625 C-16.21477797 26.12091104 -16.21477797 26.12091104 -18 30 C-9.585 29.01 -9.585 29.01 -1 28 C-4.15670696 32.34047206 -7.35097429 36.43826265 -11 40.375 C-22.66948407 53.44215992 -27.05901646 70.5592052 -32 87 C-47.35920708 87.9873776 -62.0038182 85.10671899 -77 82 C-78.22654297 81.74686035 -79.45308594 81.4937207 -80.71679688 81.23291016 C-81.89822266 80.97687012 -83.07964844 80.72083008 -84.296875 80.45703125 C-85.36776367 80.22604736 -86.43865234 79.99506348 -87.54199219 79.75708008 C-88.35313477 79.50724365 -89.16427734 79.25740723 -90 79 C-90.33 78.34 -90.66 77.68 -91 77 C-82.44714204 63.95836173 -73.90124802 50.96054008 -64.29345703 38.66503906 C-63.07074618 37.09107002 -61.87622631 35.49531819 -60.68359375 33.8984375 C-51.56154507 22.05119717 -16.65971043 -5.55323681 0 0 Z " fill="#EA2724" transform="translate(308,337)"/>
<path d="M0 0 C0.99 0.99 0.99 0.99 2 2 C-1.60780271 6.46055607 -5.45893141 10.48249427 -9.73681641 14.29443359 C-27.32645912 29.9953234 -34.00178091 50.37780481 -42 72 C-48.28064309 72.16216159 -53.93141587 71.7141054 -60.0625 70.375 C-61.29141968 70.10876831 -61.29141968 70.10876831 -62.54516602 69.8371582 C-80.8643913 65.66250733 -99.80402531 57.84606002 -111 42 C-104.23263879 39.27759708 -97.31162081 37.34506329 -90.29058838 35.38577271 C-65.8269411 28.51307785 -45.25590276 18.9903177 -24.1484375 4.91015625 C-16.32057452 0.16099372 -9.09283182 -2.05437261 0 0 Z " fill="#E92825" transform="translate(176,404)"/>
<path d="M0 0 C0.85676331 0.38739853 1.71352661 0.77479706 2.59625244 1.17393494 C13.25258851 6.03974624 23.70209648 11.3191081 34.16015625 16.59375 C36.14954636 17.59348354 38.13912923 18.59283362 40.12890625 19.59179688 C43.96467626 21.51794542 47.79890074 23.44711963 51.63208008 25.37841797 C54.95001792 27.04877449 58.27192931 28.71048 61.6003418 30.35986328 C74.9287991 36.96635815 74.9287991 36.96635815 81.22265625 40.78125 C81.84076172 41.14089844 82.45886719 41.50054687 83.09570312 41.87109375 C86.42707253 43.87063725 88.84206708 45.71633451 90.91015625 49.03125 C87.89005573 52.05135052 78.1232141 50.34346864 74.04394531 50.34594727 C62.53199193 50.21294753 54.63266669 48.01712466 44.41015625 42.65625 C38.63195439 39.62926745 33.02310889 37.80451083 26.72265625 36.15625 C16.74626433 33.53905959 7.81059529 29.5961289 -1.33837891 24.87573242 C-6.1419896 22.5596341 -10.62322716 22.84008246 -15.83984375 22.84375 C-16.77401123 22.84310547 -17.70817871 22.84246094 -18.6706543 22.84179688 C-26.61654094 22.90163753 -34.26158098 23.6844521 -42.08984375 25.03125 C-48.63777717 16.1755922 -54.88166842 7.12668334 -61.08984375 -1.96875 C-46.50869324 -17.80428042 -16.01454896 -7.26601113 0 0 Z " fill="#E92825" transform="translate(1043.08984375,299.96875)"/>
<path d="M0 0 C-1.19224313 6.77423064 -2.86479025 13.15385566 -5.1875 19.625 C-5.48994629 20.47876221 -5.79239258 21.33252441 -6.10400391 22.2121582 C-13.92863392 43.92863392 -13.92863392 43.92863392 -17 47 C-49.76206001 49.24584126 -84.80832917 43.69962505 -113 26 C-113.33 25.34 -113.66 24.68 -114 24 C-113.41008774 23.89470474 -112.82017548 23.78940948 -112.21238708 23.68092346 C-75.13180924 17.08377755 -75.13180924 17.08377755 -38.3125 9.1875 C-37.55653534 9.01131134 -36.80057068 8.83512268 -36.021698 8.65359497 C-26.65292261 6.45798333 -17.33945683 4.07443578 -8.04988098 1.56474304 C-2.21076125 0 -2.21076125 0 0 0 Z " fill="#E92825" transform="translate(331,282)"/>
<path d="M0 0 C-3.81440466 3.9057069 -7.62684416 7.74028858 -11.8125 11.25 C-21.45755015 19.65898547 -28.84111489 29.22905295 -35.96533203 39.79370117 C-37.61044772 42.22109789 -39.29489434 44.61444378 -41 47 C-41.53689453 47.78826172 -42.07378906 48.57652344 -42.62695312 49.38867188 C-44.87198908 52.37417583 -46.56111532 54.61862012 -50.25854492 55.59863281 C-56.8987335 55.83887023 -63.25918953 53.88863235 -69.5625 52 C-70.63733643 51.68675781 -71.71217285 51.37351562 -72.81958008 51.05078125 C-76.21845931 50.05109636 -79.60950181 49.02771749 -83 48 C-84.11149414 47.66871094 -85.22298828 47.33742188 -86.36816406 46.99609375 C-117.2551331 37.74904109 -117.2551331 37.74904109 -127 29 C-127 28.34 -127 27.68 -127 27 C-126.17089111 26.89977539 -125.34178223 26.79955078 -124.48754883 26.69628906 C-121.29395753 26.30672437 -118.10124521 25.91066362 -114.90893555 25.51074219 C-112.89494984 25.26025462 -110.88010583 25.01669759 -108.86523438 24.7734375 C-88.31575456 22.23070717 -68.76803104 17.47434108 -48.9375 11.5625 C-23.37462455 3.99470205 -23.37462455 3.99470205 -11.56640625 0.96484375 C-10.73745346 0.74703751 -9.90850067 0.52923126 -9.0544281 0.30482483 C-3.35799338 -1.11933113 -3.35799338 -1.11933113 0 0 Z " fill="#E92825" transform="translate(257,343)"/>
<path d="M0 0 C1.01280881 11.64730132 -5.74319199 19.77756177 -12.6875 28.36962891 C-31.65845043 51.9351064 -39.87865156 78.24714518 -48 107 C-51 106 -51 106 -52.6484375 103.25390625 C-53.23933675 102.03074819 -53.8137587 100.7995472 -54.375 99.5625 C-54.67809082 98.90378906 -54.98118164 98.24507812 -55.29345703 97.56640625 C-63.77478086 78.37489354 -67.30582241 55.8319594 -62.14453125 35.27734375 C-58.83074357 28.68369796 -51.24635806 26.93531533 -44.8125 24.4375 C-33.75951096 19.99260272 -23.88443455 14.61201979 -14 8 C-13.37544922 7.58347168 -12.75089844 7.16694336 -12.10742188 6.73779297 C-9.45447689 4.96415472 -6.81042705 3.18111541 -4.1875 1.36328125 C-2 0 -2 0 0 0 Z " fill="#E92825" transform="translate(635,751)"/>
<path d="M0 0 C0.35209746 10.91502125 -0.68342984 18.65826741 -8 27 C-8.93968501 28.08517358 -9.87840499 29.17118319 -10.81640625 30.2578125 C-11.57800049 31.13977295 -11.57800049 31.13977295 -12.35498047 32.03955078 C-26.57704329 48.53468627 -34.85662772 65.54303823 -42 86 C-42.5889032 87.66179194 -43.17874309 89.32325225 -43.76953125 90.984375 C-45.19045334 94.98586443 -46.59883906 98.99155056 -48 103 C-48.66 103 -49.32 103 -50 103 C-59.13269781 75.91224095 -58.38693849 47.04353819 -46 21 C-43.07084691 16.6555246 -40.45621408 14.95847061 -35.6171875 13.02734375 C-35.00287872 12.77755264 -34.38856995 12.52776154 -33.75564575 12.270401 C-31.80060521 11.4790957 -29.83829321 10.70806841 -27.875 9.9375 C-26.58019577 9.41734142 -25.28591916 8.89586744 -23.9921875 8.37304688 C-21.48776638 7.363408 -18.97952991 6.36606409 -16.46777344 5.37451172 C-14.28809108 4.51055708 -12.11338957 3.633816 -9.94628906 2.73876953 C-9.0590918 2.37251465 -8.17189453 2.00625977 -7.2578125 1.62890625 C-6.49871582 1.31123291 -5.73961914 0.99355957 -4.95751953 0.66625977 C-3 0 -3 0 0 0 Z " fill="#E92825" transform="translate(787,579)"/>
<path d="M0 0 C31.63180866 -1.34603441 67.96507993 11.77617083 92.8515625 31.46484375 C94 33 94 33 94 37 C90.98350694 38.46743436 87.96108949 39.92225103 84.9375 41.375 C84.08994141 41.7875 83.24238281 42.2 82.36914062 42.625 C72.79448934 47.20900293 63.03652571 50.2961502 52.4296875 47.265625 C36.26597631 39.90393476 22.85390466 24.89216232 10.4375 12.625 C9.7460791 11.94671143 9.0546582 11.26842285 8.34228516 10.56958008 C5.0261892 7.25882339 2.1581901 4.21865085 0 0 Z " fill="#E92825" transform="translate(932,191)"/>
<path d="M0 0 C-3.75786937 12.49181853 -10.32547619 28.91585068 -20 38 C-30.25758789 43.24169193 -45.73982142 39.5110661 -56.82519531 38.51074219 C-59.72885534 38.25188502 -62.63370297 38.01235539 -65.5390625 37.7734375 C-79.34065913 36.57951554 -92.95958409 35.35184029 -105 28 C-102.07588008 26.05058672 -100.36219809 25.46344735 -97.00390625 24.703125 C-95.47685059 24.35386963 -95.47685059 24.35386963 -93.91894531 23.99755859 C-92.81131836 23.75086426 -91.70369141 23.50416992 -90.5625 23.25 C-89.39944336 22.98396973 -88.23638672 22.71793945 -87.03808594 22.44384766 C-81.16880435 21.11220818 -75.2945709 19.84413529 -69.38671875 18.6953125 C-48.03912339 14.48615004 -27.23540826 8.17829082 -6.75537109 0.83691406 C-4 0 -4 0 0 0 Z " fill="#E82825" transform="translate(437,215)"/>
<path d="M0 0 C13.44024749 4.7171239 20.90848578 18.89016793 28.40917969 30.10742188 C29.71892785 32.05938729 31.04608306 33.99855907 32.375 35.9375 C32.75527344 36.52233154 33.13554688 37.10716309 33.52734375 37.7097168 C36.30095412 41.74268641 38.32302262 42.80748068 43 44 C46.61231363 44.49716953 50.23243176 44.78899329 53.8671875 45.0703125 C54.90191193 45.15626678 55.93663635 45.24222107 57.00271606 45.33078003 C60.2929499 45.60249347 63.5839097 45.86388632 66.875 46.125 C69.11203498 46.30791241 71.34901498 46.49149864 73.5859375 46.67578125 C79.05667878 47.12499517 84.5280518 47.5657488 90 48 C89.505 48.99 89.505 48.99 89 50 C86.49073047 50.58433728 84.04413915 51.04436164 81.50390625 51.4453125 C79.91049725 51.71478815 78.31724156 51.98517144 76.72412109 52.25634766 C75.46181671 52.46750214 75.46181671 52.46750214 74.17401123 52.68292236 C48.62164504 57.00843685 24.9150229 64.8394205 0.65185547 73.78369141 C-0.10664703 74.06250153 -0.86514954 74.34131165 -1.64663696 74.62857056 C-3.0816085 75.156896 -4.51555912 75.68800493 -5.94833374 76.22225952 C-10.7780311 78 -10.7780311 78 -13 78 C-11.42085875 71.70911208 -9.59834357 65.51251642 -7.5 59.375 C-7.0978125 58.18648437 -6.695625 56.99796875 -6.28125 55.7734375 C-5.8584375 54.85820312 -5.435625 53.94296875 -5 53 C-1.54483715 51.84827905 -0.17779756 52.20281934 3.32421875 52.99609375 C4.35224609 53.22490234 5.38027344 53.45371094 6.43945312 53.68945312 C7.51130859 53.93630859 8.58316406 54.18316406 9.6875 54.4375 C10.77095703 54.68048828 11.85441406 54.92347656 12.97070312 55.17382812 C15.64880847 55.77551699 18.32504042 56.38450297 21 57 C20.07316406 56.54496094 19.14632813 56.08992188 18.19140625 55.62109375 C14.14995382 53.31536823 10.57795743 50.94984726 8 47 C6.52355463 41.3772964 6.92987877 35.56734047 7.01953125 29.80078125 C7.17755257 19.42404794 3.96676703 9.52024088 0 0 Z " fill="#E62A27" transform="translate(1057,141)"/>
<path d="M0 0 C1.59908203 0.5259375 1.59908203 0.5259375 3.23046875 1.0625 C17.75009975 6.4721426 30.3231043 17.18593285 40.22265625 28.90234375 C42.26637586 31.31438206 44.37822417 33.65638589 46.5 36 C49.22855564 39.02453456 51.94347414 42.05868119 54.625 45.125 C55.46998047 46.08792969 55.46998047 46.08792969 56.33203125 47.0703125 C57.44995132 48.36364392 58.55150988 49.67128888 59.63671875 50.9921875 C70.1644892 63.60587984 84.08250358 70.71894888 99 77 C99 77.33 99 77.66 99 78 C69.91966022 76.88889347 51.38718883 58.90198123 31.9375 38.8125 C9.32498039 16.05047613 -17.60534957 7.32920205 -49.125 5.875 C-51.30982466 5.76600099 -53.49443487 5.65387742 -55.67892456 5.5383606 C-57.63346971 5.43618747 -59.58845619 5.34255897 -61.54345703 5.24951172 C-64.75271177 5.01785058 -67.83856835 4.58720093 -71 4 C-55.25975994 -10.5458587 -18.49064296 -6.25267571 0 0 Z " fill="#080807" transform="translate(1119,253)"/>
<path d="M0 0 C4.08213826 0.44532417 7.95607741 0.96155196 11.921875 2.0234375 C19.284512 3.69762494 26.9204672 3.28780712 34.43164062 3.21484375 C46.21082159 3.38156052 55.08147381 7.50573114 63.625 15.5 C64.72428109 16.45855226 65.82716645 17.41298657 66.93359375 18.36328125 C67.72032471 19.04124756 67.72032471 19.04124756 68.52294922 19.73291016 C77.16714506 27.14834428 84.56983608 27.8850923 95.61767578 27.19140625 C99.3819246 26.88897019 103.1258469 26.44876226 106.875 26 C115.05933505 25.02476381 123.1973079 24.71170464 131.4375 24.625 C132.59813965 24.59921875 133.7587793 24.5734375 134.95458984 24.546875 C146.57884078 24.52029389 156.22930548 27.26218168 165 35 C166.23169922 36.07121094 166.23169922 36.07121094 167.48828125 37.1640625 C169.67686259 39.09055867 171.84576994 41.0352624 174 43 C169.73616266 44.42127911 166.67891884 42.72047306 162.625 41.25 C150.46637664 36.86352642 138.97057916 34.43771215 126 34.5 C124.07885376 34.5009668 124.07885376 34.5009668 122.11889648 34.50195312 C110.12329035 34.68362704 98.72703915 36.55804943 86.97265625 38.90625 C74.86097535 41.27284672 74.86097535 41.27284672 68.9921875 37.58203125 C65.89813435 35.12498904 63.2213278 32.27430117 60.48510742 29.43041992 C55.1533511 23.96797885 49.13613791 19.51161855 43 15 C41.94619141 14.08734375 41.94619141 14.08734375 40.87109375 13.15625 C39.08634547 11.81178795 39.08634547 11.81178795 37.02734375 12.08203125 C33.61473347 13.62724015 31.08594295 16.21867718 28.31640625 18.69921875 C26 20 26 20 23.46875 19.35546875 C21.26620587 18.1461605 19.08724207 16.92561466 16.9375 15.625 C11.57222446 12.57078064 5.88776605 10.78326586 0 9 C0 6.03 0 3.06 0 0 Z " fill="#070807" transform="translate(657,217)"/>
<path d="M0 0 C3.54665291 1.31941002 6.63088664 2.88886841 9.82421875 4.9140625 C10.75621094 5.50155273 11.68820312 6.08904297 12.6484375 6.69433594 C14.15277344 7.65001465 14.15277344 7.65001465 15.6875 8.625 C17.86804258 9.99810595 20.04904743 11.37047802 22.23046875 12.7421875 C23.0717482 13.27205261 23.0717482 13.27205261 23.93002319 13.81262207 C40.77629047 24.42023497 57.80341579 34.71041887 74.93945312 44.84033203 C83.40032124 49.84480759 91.82054023 54.91063505 100.21066284 60.03277588 C110.36545727 66.23133458 120.55659406 72.30041797 131 78 C132.20908286 78.68748556 133.41740705 79.37630696 134.625 80.06640625 C144.35219419 85.54101448 154.45971509 89.36933136 165 93 C165 93.33 165 93.66 165 94 C143.36834576 96.17525015 125.89441355 84.82277892 108 74 C106.94280762 73.36384766 105.88561523 72.72769531 104.79638672 72.07226562 C97.11171603 67.44383321 89.45095563 62.77680538 81.79675293 58.09820557 C76.55478623 54.89422748 71.31033102 51.69436407 66.0625 48.5 C65.49256317 48.15281921 64.92262634 47.80563843 64.3354187 47.44793701 C57.66166581 43.38577562 50.96201674 39.37275371 44.21484375 35.43359375 C43.56741714 35.05550568 42.91999054 34.6774176 42.25294495 34.28787231 C39.15299967 32.47950408 36.04985717 30.6769424 32.94165039 28.8828125 C5.73954178 13.08615525 5.73954178 13.08615525 0 0 Z " fill="#090A09" transform="translate(907,421)"/>
<path d="M0 0 C0.69448242 0.17692383 1.38896484 0.35384766 2.10449219 0.53613281 C15.8295343 4.16646602 25.85178117 10.01415267 36 20 C36.77472656 20.76183594 37.54945312 21.52367187 38.34765625 22.30859375 C44.59704562 28.8366866 48.80722182 36.07142219 53 44 C48.91687738 44 48.14440442 42.50735158 45.25 39.6875 C16.68801248 12.85815079 -16.36025465 4.48633001 -54.6875 3.4375 C-56.17904546 3.39418922 -57.67058205 3.35057152 -59.16210938 3.30664062 C-62.77464429 3.20089527 -66.38728094 3.09928034 -70 3 C-66.32516155 1.05208004 -62.90770998 0.23483446 -58.8125 -0.5625 C-57.56082031 -0.81128906 -56.30914063 -1.06007812 -55.01953125 -1.31640625 C-37.04690373 -4.51773902 -17.72672791 -4.52132133 0 0 Z " fill="#080908" transform="translate(1190,231)"/>
<path d="M0 0 C-5.10639357 18.02256553 -16.97881448 31.83679528 -33.01953125 41.17578125 C-36.7530888 42.72958923 -40.2032084 42.1658457 -44 41 C-49.77925075 37.39431632 -52.81354025 32.86646231 -56 27 C-55.20722656 26.63390625 -54.41445312 26.2678125 -53.59765625 25.890625 C-49.39270356 23.93915525 -45.19499597 21.97276909 -41 20 C-40.03030273 19.54447754 -39.06060547 19.08895508 -38.06152344 18.61962891 C-20.91685425 10.55053093 -20.91685425 10.55053093 -4.37890625 1.328125 C-2 0 -2 0 0 0 Z " fill="#E72927" transform="translate(1155,455)"/>
<path d="M0 0 C4.57542343 1.93400877 7.82680142 4.64904406 11.0625 8.375 C12.40038639 12.12108188 13.05053903 15.15723882 12 19 C7.56573644 26.0455521 0.23589926 32.00213644 -7 36 C-12.46786502 34.17737833 -14.45340725 27.90547596 -17 23 C-19.39638384 17.20873904 -19.27150618 12.06016254 -18 6 C-14.3468757 -1.78274308 -7.82697006 -0.95035375 0 0 Z " fill="#E72825" transform="translate(974,311)"/>
<path d="M0 0 C3.82153836 5.73230755 4.72949169 13.13418926 3.64453125 19.90625 C2.05015104 25.08556995 -1.22984214 27.90873791 -5.75 30.6953125 C-18.56040256 37.45998936 -29.55742792 38.41704803 -43.53125 34.8515625 C-46 34 -46 34 -48 32 C-43.62712177 29.9634586 -39.30528747 28.0374002 -34.6875 26.625 C-33.1208123 26.0955676 -31.55851708 25.55302219 -30 25 C-28.67742188 24.54367187 -28.67742188 24.54367187 -27.328125 24.078125 C-17.14540496 19.83991179 -10.65805828 11.82681138 -3.50537109 3.69238281 C-2.37744823 2.42433849 -1.20003049 1.20003049 0 0 Z " fill="#080908" transform="translate(802,298)"/>
<path d="M0 0 C2.15060486 1.56407626 4.04125524 3.18816109 6 5 C4.3150252 9.35107417 1.10707712 12.26057725 -2.125 15.5 C-2.66898438 16.06847656 -3.21296875 16.63695312 -3.7734375 17.22265625 C-7.50835041 20.98374846 -11.71877921 24.74521779 -17 26 C-20.54052704 24.83497052 -21.03394288 23.94305936 -23.03515625 20.5859375 C-23.7233494 19.18833523 -24.39874026 17.7843704 -25.0625 16.375 C-25.57006836 15.34439453 -25.57006836 15.34439453 -26.08789062 14.29296875 C-28.35349701 9.62152503 -30.23884341 4.88295754 -32 0 C-22.54177893 -4.72911053 -9.39164935 -5.04366354 0 0 Z " fill="#E82926" transform="translate(1040,335)"/>
<path d="M0 0 C5.28 0 10.56 0 16 0 C16 12.28398235 11.72751706 23.25997826 2.8984375 32.10546875 C-2.23628632 36.3602134 -7.70746215 38.88497162 -14 41 C-13.37007646 34.99527435 -11.74540409 29.58287351 -9.8125 23.875 C-9.50368896 22.95372314 -9.19487793 22.03244629 -8.87670898 21.08325195 C-6.37770161 13.78047638 -3.42177171 6.92700127 0 0 Z " fill="#E72926" transform="translate(1191,366)"/>
<path d="M0 0 C0.77472656 0.00451172 1.54945312 0.00902344 2.34765625 0.01367188 C4.23180524 0.02530242 6.11591365 0.04323094 8 0.0625 C8.30246878 7.77545396 6.33082535 13.15474185 1.30859375 19.046875 C-3.60909339 23.68736474 -12.02965567 30.0625 -19 30.0625 C-20.79203512 21.07978306 -22.43708547 12.22441918 -23 3.0625 C-15.41545112 0.21829417 -7.99388659 -0.09005245 0 0 Z " fill="#E62A27" transform="translate(1153,355.9375)"/>
<path d="M0 0 C-1.64566523 5.68502535 -4.29032784 10.76681636 -7 16 C-13.20708096 15.44241476 -18.50263586 12.81586523 -24.125 10.3125 C-25.14730713 9.86277832 -26.16961426 9.41305664 -27.22290039 8.94970703 C-34.2556255 5.83461527 -41.19914295 2.59787276 -48 -1 C-48 -1.66 -48 -2.32 -48 -3 C-11.8873592 -5.9436796 -11.8873592 -5.9436796 0 0 Z " fill="#E42B28" transform="translate(1038,195)"/>
<path d="M0 0 C0 7.26 0 14.52 0 22 C-7.88074585 20.87417916 -7.88074585 20.87417916 -10.97265625 19.6953125 C-11.98102539 19.31439453 -11.98102539 19.31439453 -13.00976562 18.92578125 C-13.68716797 18.66152344 -14.36457031 18.39726562 -15.0625 18.125 C-15.74376953 17.86847656 -16.42503906 17.61195313 -17.12695312 17.34765625 C-21.21259402 15.78561487 -25.11570907 14.02395191 -29 12 C-28.6657496 9.14030211 -28.24877719 8.19921238 -25.9609375 6.3671875 C-16.57340353 0.95021171 -11.37829109 0 0 0 Z " fill="#E82A27" transform="translate(1055,437)"/>
<path d="M0 0 C1.32719886 6.96779403 1.08825381 13.92988911 1 21 C-10.78901925 20.31986427 -19.81297104 15.33174917 -28 7 C-27 5 -27 5 -24.05078125 3.96484375 C-22.81714844 3.62582031 -21.58351563 3.28679687 -20.3125 2.9375 C-18.48138672 2.42509766 -18.48138672 2.42509766 -16.61328125 1.90234375 C-10.95323984 0.48886314 -5.83775112 -0.11675502 0 0 Z " fill="#E42B28" transform="translate(1003,409)"/>
<path d="M0 0 C0.99 0.33 1.98 0.66 3 1 C3.96088383 3.88265149 4.11670941 5.67662271 4.09765625 8.66796875 C4.09443359 9.56064453 4.09121094 10.45332031 4.08789062 11.37304688 C4.07951172 12.30181641 4.07113281 13.23058594 4.0625 14.1875 C4.05798828 15.12787109 4.05347656 16.06824219 4.04882812 17.03710938 C4.03704626 19.35813712 4.02059558 21.67903644 4 24 C-5.45726837 24.34769369 -5.45726837 24.34769369 -10 22.125 C-10.7425 21.77695312 -11.485 21.42890625 -12.25 21.0703125 C-14 20 -14 20 -15 18 C-10.15332041 11.85667626 -5.21526908 5.83458229 0 0 Z " fill="#E52A28" transform="translate(1089,454)"/>
<path d="M0 0 C-0.25726693 1.89772191 -0.53143339 3.79315677 -0.8125 5.6875 C-0.96332031 6.74324219 -1.11414063 7.79898437 -1.26953125 8.88671875 C-2.03752382 12.15992773 -2.99667762 14.30968697 -5 17 C-8.25 18.3125 -8.25 18.3125 -12 18 C-15.9309536 14.77297974 -19.03745545 10.70053354 -21 6 C-21 5.01 -21 4.02 -21 3 C-18.06298109 2.49702428 -15.12544669 1.99750127 -12.1875 1.5 C-11.35412109 1.35691406 -10.52074219 1.21382813 -9.66210938 1.06640625 C-8.45844727 0.86337891 -8.45844727 0.86337891 -7.23046875 0.65625 C-6.12288208 0.46772461 -6.12288208 0.46772461 -4.99291992 0.27539062 C-3 0 -3 0 0 0 Z " fill="#E32C29" transform="translate(967,385)"/>
<path d="M0 0 C2.41706304 0.30964862 4.83361887 0.62261115 7.25 0.9375 C8.27287109 1.06801758 8.27287109 1.06801758 9.31640625 1.20117188 C12.60036611 1.6315938 15.81190294 2.08794131 19 3 C20.00055675 7.12729658 20.677805 10.78254666 20 15 C17.6290305 17.29775666 15.11734499 18.90779154 12 20 C10 19.78100586 10 19.78100586 8 19 C6.81152344 17.35766602 6.81152344 17.35766602 5.859375 15.25390625 C5.51132813 14.49916016 5.16328125 13.74441406 4.8046875 12.96679688 C4.45664063 12.17337891 4.10859375 11.37996094 3.75 10.5625 C3.38648438 9.77294922 3.02296875 8.98339844 2.6484375 8.16992188 C0 2.33041588 0 2.33041588 0 0 Z " fill="#E32C29" transform="translate(1070,347)"/>
<path d="M0 0 C0.66 0.33 1.32 0.66 2 1 C-2.62 5.62 -7.24 10.24 -12 15 C-12 10.39852874 -9.10228152 8.19311408 -6 5 C-4.05341967 3.24193983 -2.06456557 1.62215867 0 0 Z " fill="#CF3431" transform="translate(459,214)"/>
<path d="M0 0 C0 3 0 3 -2.625 5.91796875 C-3.74249406 7.01550756 -4.86785643 8.10507895 -6 9.1875 C-6.57234375 9.74630859 -7.1446875 10.30511719 -7.734375 10.88085938 C-9.14962788 12.26073093 -10.57397155 13.63126734 -12 15 C-12 10.39852874 -9.10228152 8.19311408 -6 5 C-4.05341967 3.24193983 -2.06456557 1.62215867 0 0 Z " fill="#CE3432" transform="translate(260,358)"/>
<path d="M0 0 C0.66 0.33 1.32 0.66 2 1 C-2.29 5.29 -6.58 9.58 -11 14 C-11 9.40845608 -8.09282279 7.18698368 -5 4 C-3.3719908 2.61973133 -1.71956118 1.26438322 0 0 Z " fill="#CE3331" transform="translate(432,316)"/>
<path d="M0 0 C0.66 0.33 1.32 0.66 2 1 C-1.63 4.63 -5.26 8.26 -9 12 C-9 7.8407692 -6.75316432 5.85455565 -4 3 C-1.6875 1.125 -1.6875 1.125 0 0 Z " fill="#CB3331" transform="translate(538,698)"/>
<path d="M0 0 C0.66 0.33 1.32 0.66 2 1 C-1.3 4.3 -4.6 7.6 -8 11 C-8.66 10.67 -9.32 10.34 -10 10 C-6.92118304 6.12948725 -3.99926986 2.97088618 0 0 Z " fill="#D53431" transform="translate(498,383)"/>
<path d="M0 0 C0.66 0.33 1.32 0.66 2 1 C-0.97 3.97 -3.94 6.94 -7 10 C-7 6.04435836 -5.59478606 4.89133304 -3 2 C-2.01 1.34 -1.02 0.68 0 0 Z " fill="#CB3431" transform="translate(820,512)"/>
<path d="M0 0 C0.66 0.33 1.32 0.66 2 1 C-1.3 4.3 -4.6 7.6 -8 11 C-8 6.67750434 -5.85084926 5.11604454 -3 2 C-2.01 1.34 -1.02 0.68 0 0 Z " fill="#D13431" transform="translate(267,481)"/>
<path d="M0 0 C1 4 1 4 0 7 C1.65 7 3.3 7 5 7 C5 7.33 5 7.66 5 8 C2.69 8.33 0.38 8.66 -2 9 C-1.34 6.03 -0.68 3.06 0 0 Z " fill="#9B9C9B" transform="translate(125,575)"/>
</svg>
