<?xml version="1.0" standalone="no"?>
<!DOCTYPE svg PUBLIC "-//W3C//DTD SVG 20010904//EN"
 "http://www.w3.org/TR/2001/REC-SVG-20010904/DTD/svg10.dtd">
<svg version="1.0" xmlns="http://www.w3.org/2000/svg"
 width="600.000000pt" height="600.000000pt" viewBox="0 0 600.000000 600.000000"
 preserveAspectRatio="xMidYMid meet">

<g transform="translate(0.000000,600.000000) scale(0.100000,-0.100000)"
fill="#fff" stroke="none">
<path d="M2996 5118 c-11 -71 -60 -161 -116 -211 l-49 -44 44 -48 c51 -57 100
-150 116 -223 6 -29 12 -52 14 -52 2 0 8 23 14 52 17 75 64 168 115 223 l45
48 -50 45 c-57 51 -94 116 -113 200 l-13 57 -7 -47z"/>
<path d="M2577 5044 c-4 -4 -7 -17 -7 -29 0 -35 -50 -123 -87 -154 l-36 -30
36 -41 c41 -48 76 -118 84 -167 6 -38 23 -55 23 -24 0 40 43 134 85 186 l43
53 -25 13 c-36 19 -81 89 -96 149 -7 28 -16 47 -20 44z"/>
<path d="M3412 4995 c-15 -56 -52 -114 -92 -144 l-30 -22 30 -32 c43 -44 80
-109 95 -165 7 -26 15 -40 18 -32 42 122 55 148 106 203 l25 27 -36 30 c-39
32 -88 120 -88 157 0 38 -15 26 -28 -22z"/>
<path d="M2241 4808 c-6 -19 -25 -47 -41 -63 l-29 -28 23 -28 c13 -16 32 -49
42 -75 l17 -46 15 39 c8 21 27 54 43 74 l28 37 -26 23 c-14 13 -34 41 -43 63
l-18 38 -11 -34z"/>
<path d="M3742 4808 c-6 -19 -25 -47 -41 -62 l-30 -29 28 -36 c16 -20 35 -53
43 -74 l15 -39 17 46 c10 26 29 59 42 75 l23 28 -26 24 c-14 13 -33 41 -42 62
l-16 39 -13 -34z"/>
<path d="M1986 4670 c-10 -22 -26 -45 -37 -50 -19 -11 -19 -12 5 -43 13 -18
31 -48 38 -67 l15 -35 7 30 c4 17 19 45 33 63 l25 33 -20 22 c-12 12 -27 37
-35 55 l-13 32 -18 -40z"/>
<path d="M3996 4687 c-3 -14 -18 -40 -32 -57 l-27 -31 22 -22 c11 -13 27 -41
34 -62 l14 -40 11 35 c7 19 23 48 36 64 23 29 23 30 5 45 -11 9 -27 33 -38 55
-18 38 -18 38 -25 13z"/>
<path d="M1870 4524 c-79 -61 -103 -88 -128 -142 -41 -91 -23 -92 81 -5 51 43
106 87 121 98 l28 20 -19 32 c-10 18 -22 33 -28 32 -5 0 -30 -16 -55 -35z"/>
<path d="M4064 4529 c-18 -20 -18 -21 6 -40 34 -26 67 -34 85 -19 8 7 15 15
15 19 0 6 -74 61 -83 61 -2 0 -12 -9 -23 -21z"/>
<path d="M4162 4451 c-45 -43 -82 -86 -82 -94 0 -9 14 -23 30 -32 17 -9 30
-22 30 -30 0 -7 -13 -23 -30 -35 -36 -26 -40 -64 -9 -81 18 -9 24 -8 31 5 9
16 39 22 51 10 3 -4 0 -16 -8 -28 -24 -34 -18 -56 20 -72 40 -16 205 -20 205
-4 0 6 -4 10 -9 10 -19 0 -121 85 -121 101 0 18 44 59 64 59 6 0 35 11 64 25
43 20 53 29 50 46 -6 42 -29 44 -121 14 -72 -24 -88 -27 -101 -16 -23 19 -20
78 9 138 13 29 20 55 16 57 -4 3 -44 -30 -89 -73z"/>
<path d="M2747 4499 c-145 -16 -299 -118 -360 -236 -22 -41 -21 -43 7 -43 34
0 44 -18 63 -109 l16 -82 22 27 c21 27 24 27 46 12 13 -8 47 -43 74 -76 28
-34 53 -61 57 -61 4 -1 -4 24 -18 54 -14 30 -28 80 -31 110 l-6 54 34 -9 c19
-5 49 -26 67 -46 l34 -36 22 21 c29 27 57 27 85 -3 15 -16 29 -22 46 -19 19 4
27 -2 44 -34 11 -22 38 -62 60 -91 82 -103 98 -154 67 -210 -33 -61 -123 -81
-172 -39 -49 43 -28 123 31 115 24 -4 33 -37 13 -50 -10 -8 -10 -9 2 -5 38 10
16 67 -26 67 -64 0 -85 -86 -36 -141 23 -25 38 -33 79 -36 104 -10 173 59 173
173 0 59 -6 74 -75 190 -16 27 -17 34 -5 48 7 10 23 16 34 14 12 -1 31 7 44
20 27 27 52 28 84 3 l24 -20 36 38 c38 41 86 58 95 35 7 -18 -13 -108 -37
-163 l-20 -46 71 78 c39 42 77 77 85 77 8 0 19 -9 26 -20 7 -11 16 -20 19 -20
4 0 12 30 19 68 14 82 32 112 66 112 l25 0 -28 51 c-75 138 -330 274 -437 233
-13 -5 -12 -9 4 -27 24 -25 27 -95 6 -136 -16 -31 -80 -91 -97 -91 -23 0 -99
62 -99 81 0 23 27 37 45 23 70 -52 91 -55 61 -10 -9 15 -16 46 -16 75 0 27 -4
52 -8 55 -5 3 -7 -8 -4 -23 2 -16 -1 -32 -7 -35 -7 -5 -11 2 -11 17 0 14 -7
30 -15 37 -9 8 -15 9 -15 2 0 -6 5 -14 10 -17 21 -13 9 -36 -27 -52 -57 -26
-83 -53 -89 -95 -4 -22 -12 -38 -20 -38 -21 0 -61 61 -74 112 -11 43 -10 51 8
82 25 41 17 45 -71 35z"/>
<path d="M1664 4398 c-101 -97 -104 -103 -59 -129 19 -12 35 -25 35 -30 0 -6
-17 -25 -37 -44 -31 -28 -36 -38 -27 -52 19 -31 44 -40 55 -20 10 17 40 23 52
11 3 -4 0 -16 -8 -28 -43 -60 2 -91 134 -91 90 0 114 13 62 35 -16 6 -49 29
-72 51 l-42 39 22 24 c12 13 50 34 83 46 66 24 101 52 92 74 -11 29 -46 28
-131 0 l-85 -28 -20 24 c-23 29 -20 57 16 131 13 27 19 52 14 55 -5 3 -43 -27
-84 -68z"/>
<path d="M4237 4423 c-14 -13 -7 -62 11 -71 16 -9 62 1 62 13 0 14 -65 66 -73
58z"/>
<path d="M4371 4251 c-14 -9 -8 -18 124 -170 22 -25 51 -67 64 -93 21 -43 27
-48 58 -48 l33 0 -26 43 c-96 152 -196 277 -222 277 -9 0 -23 -4 -31 -9z"/>
<path d="M1527 4197 c-128 -150 -263 -394 -331 -597 -19 -58 -47 -163 -63
-235 -25 -121 -27 -146 -28 -370 0 -266 9 -332 70 -545 54 -187 200 -486 266
-546 l21 -19 -4 65 c-4 54 -13 78 -52 146 -87 151 -165 373 -201 573 -23 122
-30 383 -16 511 35 300 138 583 305 829 50 75 71 113 65 122 -15 24 -10 39 21
71 35 34 38 48 11 48 -10 0 -39 -24 -64 -53z"/>
<path d="M2215 4080 l-50 -50 30 -24 30 -24 -29 -30 c-33 -36 -28 -57 10 -40
34 16 51 -1 34 -33 -18 -32 9 -49 78 -49 l55 0 -42 38 c-50 43 -48 62 7 87 65
28 85 40 89 51 7 21 -22 22 -84 1 -51 -17 -64 -18 -77 -8 -20 17 -20 63 -1
101 23 44 6 37 -50 -20z"/>
<path d="M3761 4069 l-55 -51 27 -16 c34 -21 34 -29 0 -64 -19 -20 -24 -31
-16 -39 8 -8 17 -7 32 2 29 19 48 0 31 -31 -18 -33 0 -43 78 -48 l67 -4 -42
33 c-24 18 -43 41 -43 50 0 22 27 44 72 58 44 15 66 37 50 53 -7 7 -29 4 -77
-13 -65 -24 -67 -24 -81 -5 -18 25 -18 48 0 91 8 19 14 35 13 35 -1 0 -26 -23
-56 -51z"/>
<path d="M4440 3974 l-65 -65 28 -23 27 -22 -25 -24 c-28 -27 -31 -42 -11 -59
11 -9 19 -9 35 1 26 16 36 6 19 -21 -22 -36 9 -55 97 -59 64 -4 75 -2 75 12 0
9 -6 16 -12 16 -7 0 -28 13 -47 29 -42 34 -37 56 16 77 68 27 83 37 83 56 0
29 -26 32 -90 13 -32 -10 -66 -15 -74 -12 -21 8 -20 43 4 96 11 24 20 45 20
47 0 14 -24 -4 -80 -62z"/>
<path d="M4158 3915 c-3 -6 -8 -22 -12 -38 -4 -15 -22 -45 -41 -66 l-35 -38
22 -19 c11 -10 33 -46 48 -78 l27 -59 7 36 c4 20 22 57 41 81 29 39 32 46 19
57 -27 22 -57 71 -63 103 -4 17 -9 26 -13 21z"/>
<path d="M1526 3865 c-4 -19 -22 -51 -42 -71 l-35 -37 27 -28 c15 -15 35 -52
45 -81 14 -42 19 -49 24 -33 19 58 32 82 57 111 l28 32 -35 35 c-19 19 -38 49
-41 66 -9 44 -21 47 -28 6z"/>
<path d="M4662 3854 c-11 -12 -5 -33 37 -132 149 -350 189 -652 135 -1017 -35
-237 -108 -445 -230 -652 -40 -68 -54 -102 -54 -130 l1 -38 54 84 c280 435
367 993 236 1503 -16 62 -39 138 -51 168 -30 79 -102 230 -109 230 -3 -1 -12
-7 -19 -16z"/>
<path d="M1866 3819 c-122 -18 -211 -78 -267 -181 -33 -62 -34 -65 -34 -183 0
-116 1 -123 33 -187 38 -78 82 -120 168 -160 102 -47 313 -54 406 -12 l38 17
0 138 c0 142 0 142 45 174 18 13 9 14 -85 14 l-105 0 28 -20 27 -21 0 -129 0
-130 -35 -15 c-109 -45 -289 23 -382 144 -46 61 -67 139 -60 228 13 175 119
280 292 292 39 2 89 -1 113 -7 50 -14 106 -60 131 -109 l18 -35 6 34 c12 67
19 129 16 129 -2 0 -67 7 -144 15 -77 8 -142 14 -145 14 -3 -1 -31 -5 -64 -10z"/>
<path d="M3561 3643 c-101 -3 -121 -6 -107 -16 14 -10 17 -41 22 -215 5 -175
4 -206 -10 -227 -9 -13 -16 -27 -16 -30 0 -3 54 -5 120 -5 88 0 122 3 124 13
3 6 7 26 11 42 l7 30 -29 -27 c-32 -30 -78 -37 -116 -17 -34 18 -37 28 -37
122 l0 87 55 0 c42 0 59 -5 73 -21 l20 -20 3 38 4 38 -77 -4 -78 -3 0 91 0 91
65 0 c50 0 66 -4 74 -17 5 -10 11 -16 14 -13 8 9 16 70 9 68 -4 -1 -63 -4
-131 -5z"/>
<path d="M2469 3613 c-6 -15 -44 -115 -84 -222 -41 -106 -84 -204 -96 -217
l-22 -24 56 0 c53 0 56 1 46 18 -9 15 -7 34 13 93 l25 74 70 3 71 3 30 -78
c26 -66 28 -80 16 -89 -25 -20 -15 -24 51 -24 36 0 65 3 65 6 0 3 -9 13 -19
22 -17 15 -191 418 -191 442 0 23 -21 18 -31 -7z m43 -152 c14 -44 23 -82 20
-85 -3 -3 -30 -6 -60 -6 -39 0 -53 3 -49 13 2 6 15 45 28 85 12 39 26 72 29
72 3 0 17 -36 32 -79z"/>
<path d="M2866 3620 c-3 -14 -17 -115 -31 -224 -18 -146 -29 -204 -41 -217
-16 -18 -15 -19 46 -19 63 0 63 0 45 20 -18 20 -18 25 -1 148 10 70 19 128 21
130 3 3 38 -59 116 -205 24 -46 46 -83 49 -83 3 0 39 63 80 140 41 77 78 140
81 140 6 0 59 -224 59 -249 0 -8 -7 -23 -17 -33 -15 -17 -13 -18 47 -18 59 0
62 1 47 18 -10 11 -28 96 -52 237 -20 121 -37 225 -39 230 -2 6 -48 -79 -102
-187 -54 -109 -101 -198 -105 -198 -3 0 -49 89 -101 198 -79 163 -97 193 -102
172z"/>
<path d="M1836 3504 c-10 -24 -29 -53 -42 -63 l-25 -19 31 -44 c17 -24 37 -62
44 -83 l14 -39 13 42 c7 23 27 59 45 80 l32 38 -35 34 c-19 19 -37 47 -40 62
-8 43 -17 41 -37 -8z"/>
<path d="M4044 3506 c-91 -40 -111 -178 -36 -248 65 -62 158 -59 221 6 28 29
35 45 39 88 3 44 0 59 -20 88 -50 73 -128 99 -204 66z m46 -136 c0 -141 -5
-152 -49 -106 -29 31 -44 88 -36 137 7 38 52 99 74 99 7 0 11 -42 11 -130z
m17 -72 c-1 -40 -3 -10 -3 67 0 77 1 110 3 73 2 -37 2 -100 0 -140z m28 183
c-3 -11 0 -23 6 -27 8 -4 9 -3 5 4 -4 7 -3 19 2 27 7 14 11 13 34 -4 37 -29
51 -72 46 -138 -4 -48 -10 -61 -37 -85 -33 -30 -54 -30 -45 0 3 9 -2 6 -10 -8
-14 -23 -15 -15 -16 113 0 91 4 137 11 137 6 0 8 -8 4 -19z"/>
<path d="M4298 3508 c15 -15 17 -251 2 -279 -10 -17 -7 -19 27 -19 29 0 34 3
25 12 -7 7 -12 39 -12 75 0 71 10 82 59 65 24 -8 31 -7 35 5 3 8 6 16 6 17 0
1 -21 2 -47 2 l-48 -1 0 55 c0 55 0 55 33 58 18 2 40 -2 48 -9 11 -9 14 -8 14
10 0 20 -5 21 -77 21 -60 0 -74 -3 -65 -12z"/>
<path d="M4666 3365 c-10 -25 -29 -54 -42 -64 l-25 -20 35 -45 c19 -25 37 -59
41 -76 8 -35 20 -32 29 7 4 16 21 47 38 71 l30 43 -25 27 c-14 15 -33 44 -42
65 -8 20 -16 37 -18 37 -1 0 -10 -20 -21 -45z"/>
<path d="M1287 3352 c-47 -48 -59 -72 -33 -72 7 0 19 -7 26 -15 9 -11 7 -19
-14 -40 -40 -40 -35 -57 16 -49 38 7 41 6 34 -12 -19 -46 -18 -54 9 -64 14 -5
49 -10 77 -10 l50 0 -48 44 c-43 39 -47 45 -34 60 7 10 43 31 79 47 57 26 63
31 50 44 -13 13 -23 12 -81 -7 -55 -18 -69 -19 -82 -9 -18 15 -21 63 -5 92 22
42 2 38 -44 -9z"/>
<path d="M1240 2958 c0 -4 5 -30 11 -58 l11 -52 19 31 c22 37 43 43 134 39
l70 -3 3 -317 2 -316 -26 -31 -26 -31 95 0 95 0 -28 29 -29 29 2 318 2 319
1512 3 1511 2 25 -30 c29 -34 33 -32 42 30 l7 45 -1716 0 c-944 0 -1716 -3
-1716 -7z"/>
<path d="M1669 2799 c-6 -3 -3 -11 6 -19 13 -11 15 -49 15 -266 0 -248 0 -254
-22 -274 l-22 -20 79 0 79 0 -22 20 c-20 19 -22 30 -22 150 l0 130 160 0 160
0 0 -127 c0 -116 -2 -129 -22 -150 l-21 -23 73 0 c70 0 72 1 57 18 -15 16 -17
50 -17 274 0 215 2 258 15 268 25 21 17 25 -50 25 -67 0 -75 -4 -50 -25 12
-10 15 -36 15 -116 l0 -104 -160 0 -160 0 0 104 c0 80 3 106 15 116 8 7 15 15
15 19 0 8 -109 8 -121 0z"/>
<path d="M2313 2802 c-72 -3 -72 -3 -53 -22 19 -19 20 -35 20 -267 0 -240 -1
-247 -22 -270 l-21 -23 73 0 c70 0 72 1 57 18 -14 15 -17 40 -17 125 0 104 1
107 23 107 46 -1 106 -38 139 -86 48 -69 108 -133 141 -151 21 -10 43 -13 73
-8 46 6 61 25 21 25 -39 0 -93 46 -166 145 l-72 95 24 33 c40 53 57 94 57 137
0 111 -79 151 -277 142z m145 -42 c41 -25 62 -73 62 -140 0 -44 -5 -56 -29
-81 -26 -25 -37 -29 -85 -29 l-56 0 0 128 c0 71 3 132 7 135 13 14 69 6 101
-13z"/>
<path d="M3750 2802 c0 -2 7 -10 15 -18 12 -13 15 -51 15 -217 l0 -202 -63 65
c-34 36 -129 135 -210 220 l-147 154 0 -269 c0 -262 -1 -269 -22 -292 l-21
-23 78 0 c75 0 78 1 57 16 -22 15 -22 19 -22 217 l1 202 209 -215 209 -215 1
265 c0 219 3 269 15 287 15 21 14 21 -50 25 -36 1 -65 2 -65 0z"/>
<path d="M2864 2776 c-106 -49 -156 -135 -157 -270 0 -87 19 -136 75 -193 59
-60 126 -87 218 -87 93 0 149 25 214 94 129 137 80 366 -97 454 -70 36 -179
36 -253 2z m116 -267 c0 -171 -3 -258 -10 -254 -6 4 -10 102 -10 261 0 163 4
254 10 254 6 0 10 -94 10 -261z m50 1 c0 -167 -4 -260 -10 -260 -6 0 -10 93
-10 260 0 167 4 260 10 260 6 0 10 -93 10 -260z m-90 1 c0 -239 -1 -249 -19
-244 -32 8 -91 63 -113 106 -26 50 -36 172 -19 233 15 55 61 116 102 137 19 9
37 17 42 17 4 0 7 -112 7 -249z m149 234 c41 -21 96 -88 109 -134 15 -48 15
-163 1 -214 -16 -59 -95 -137 -139 -137 -7 0 -10 82 -10 250 0 138 2 250 5
250 4 0 19 -7 34 -15z"/>
<path d="M3970 2787 c0 -4 7 -10 15 -13 13 -5 15 -44 15 -262 0 -224 -2 -258
-17 -274 -16 -17 -11 -18 129 -18 l146 0 6 31 c11 57 7 62 -25 30 -38 -39
-101 -43 -143 -10 -25 20 -26 24 -26 130 l0 109 51 0 c52 0 85 -12 106 -39 10
-13 12 -8 13 29 l0 45 -85 -4 -85 -3 0 111 0 111 69 0 c60 0 72 -3 85 -22 16
-23 18 -20 30 32 l5 25 -144 0 c-80 0 -145 -4 -145 -8z"/>
<path d="M4404 2781 c-43 -26 -64 -59 -64 -99 0 -49 19 -78 119 -177 51 -50
96 -103 101 -121 23 -67 -38 -129 -118 -121 -44 5 -92 38 -92 64 0 7 -4 13
-10 13 -5 0 -10 -18 -10 -40 0 -32 5 -43 27 -57 64 -42 191 -7 240 66 42 62
24 154 -41 207 -129 106 -173 173 -147 222 13 25 73 46 103 37 31 -10 68 -45
68 -64 0 -14 1 -14 10 -1 16 24 12 77 -6 84 -37 14 -149 6 -180 -13z"/>
<path d="M1492 1978 l3 -153 37 -3 c20 -2 60 4 89 12 69 21 108 20 195 -4 54
-15 78 -18 98 -10 l27 10 -3 147 -3 148 -223 3 -223 2 3 -152z m182 56 c9 -3
14 -10 11 -14 -2 -4 21 -10 51 -13 37 -4 64 -13 78 -26 12 -12 29 -21 37 -21
35 -1 41 -17 16 -44 l-25 -27 -11 31 c-6 18 -15 29 -20 26 -5 -3 -14 1 -21 9
-14 17 -50 20 -50 5 0 -5 -11 -10 -24 -10 -13 0 -29 -6 -35 -14 -6 -8 -24 -16
-39 -18 -15 -3 -36 -9 -46 -13 -14 -6 -17 -5 -12 3 5 8 2 10 -8 6 -31 -12 -16
23 32 73 56 60 47 54 66 47z"/>
<path d="M2009 2023 c0 -60 -1 -168 -2 -242 l-2 -133 108 -84 c59 -46 112 -84
117 -84 6 0 58 37 115 83 l105 82 0 243 0 242 -220 0 -220 0 -1 -107z m255 -6
c9 -14 5 -23 -26 -52 -21 -19 -38 -38 -38 -42 1 -32 70 -52 95 -27 22 22 19
24 -16 12 -21 -7 -34 -7 -41 0 -16 16 -3 40 24 44 19 2 23 9 22 36 -1 17 1 32
4 32 17 0 74 -46 91 -74 20 -32 29 -72 14 -63 -5 3 -7 -16 -6 -41 1 -37 0 -41
-5 -17 -8 34 -40 85 -53 85 -5 0 0 -15 11 -32 26 -44 26 -98 -2 -133 -20 -26
-85 -61 -95 -51 -2 2 5 7 16 11 27 8 71 62 71 86 0 30 -17 22 -23 -11 -9 -41
-50 -65 -109 -64 -51 1 -87 24 -113 74 -17 33 -30 80 -17 61 7 -10 14 -10 30
-2 16 8 21 7 26 -5 11 -28 6 -43 -15 -46 -21 -3 -21 -4 6 -30 33 -33 85 -45
125 -28 28 12 51 53 37 67 -3 3 -9 -6 -13 -21 -5 -22 -11 -26 -43 -25 -55 2
-82 12 -72 27 7 12 14 11 39 -2 44 -23 52 -20 52 16 0 30 -1 30 -18 14 -18
-15 -20 -15 -37 4 -10 12 -25 18 -32 16 -8 -3 -13 2 -13 14 0 11 -4 20 -10 20
-5 0 -10 5 -10 10 0 18 28 10 35 -9 7 -22 33 -46 41 -38 9 9 -55 97 -71 97 -8
0 -20 -9 -27 -20 -17 -27 -38 -26 -31 1 8 30 47 45 78 31 35 -16 35 -16 35 17
0 37 -16 48 -40 26 -10 -9 -20 -12 -23 -8 -8 12 4 28 29 41 24 13 37 4 51 -35
8 -21 9 -21 32 -4 26 20 20 45 -8 36 -12 -3 -18 0 -18 10 0 22 46 16 61 -8z"/>
<path d="M2295 1991 c-3 -5 -1 -12 5 -16 5 -3 10 1 10 9 0 18 -6 21 -15 7z"/>
<path d="M2320 1975 c0 -8 -6 -15 -12 -15 -7 -1 1 -7 18 -14 18 -8 37 -22 43
-33 6 -10 11 -13 11 -8 0 11 -48 85 -55 85 -3 0 -5 -7 -5 -15z"/>
<path d="M2087 1833 c-13 -12 -7 -23 13 -23 11 0 20 7 20 15 0 15 -21 21 -33
8z"/>
<path d="M2532 1888 l3 -242 105 -83 c58 -45 111 -82 118 -80 7 1 60 38 117
82 l104 80 0 243 1 242 -225 0 -225 0 2 -242z m328 54 c0 -11 3 -13 8 -6 10
15 75 -3 69 -19 -6 -19 -87 -19 -87 0 0 11 -6 8 -19 -8 l-19 -23 40 -18 c22
-10 37 -22 33 -27 -4 -7 -15 -6 -31 1 -20 9 -30 9 -46 -1 -11 -7 -17 -8 -13
-2 3 6 0 11 -8 11 -10 0 -13 -7 -10 -19 3 -12 -5 -26 -23 -40 -32 -25 -49 -27
-40 -5 4 10 1 14 -6 11 -7 -2 -12 -11 -10 -19 1 -9 -5 -19 -14 -22 -13 -5 -15
-2 -11 14 4 17 2 20 -14 15 -22 -7 -22 -3 11 102 17 55 46 83 71 67 5 -3 9 -1
9 5 0 14 49 18 83 8 15 -5 27 -16 27 -25z m-206 -76 c-10 -31 -22 -56 -27 -56
-5 0 -6 7 -3 16 4 12 1 14 -14 9 -15 -5 -18 -3 -14 8 3 10 -2 17 -13 20 -12 3
-9 5 10 6 15 0 27 -4 27 -10 0 -5 5 -7 10 -4 6 3 10 11 10 16 0 6 -4 8 -8 5
-4 -2 -14 -1 -22 5 -11 6 -9 9 11 9 19 0 28 6 32 22 4 12 9 19 12 16 4 -3 -1
-31 -11 -62z m64 -120 c-7 -8 -16 -12 -21 -9 -11 7 2 23 19 23 12 0 12 -2 2
-14z"/>
<path d="M2701 1924 c0 -11 3 -14 6 -6 3 7 2 16 -1 19 -3 4 -6 -2 -5 -13z"/>
<path d="M2710 1859 c0 -5 5 -7 10 -4 6 3 10 8 10 11 0 2 -4 4 -10 4 -5 0 -10
-5 -10 -11z"/>
<path d="M2735 1839 c-4 -6 -4 -13 -1 -16 3 -4 6 0 6 8 1 10 5 8 15 -5 16 -21
19 -18 9 8 -7 18 -20 21 -29 5z"/>
<path d="M2705 1829 c-4 -6 -5 -12 -2 -15 2 -3 7 2 10 11 7 17 1 20 -8 4z"/>
<path d="M2670 1819 c0 -5 5 -7 10 -4 6 3 10 8 10 11 0 2 -4 4 -10 4 -5 0 -10
-5 -10 -11z"/>
<path d="M3050 1891 l0 -240 109 -85 c60 -47 113 -86 117 -86 4 0 56 37 116
83 l108 82 0 243 0 242 -225 0 -225 0 0 -239z m350 127 c0 -15 5 -28 10 -28 6
0 10 9 10 21 0 11 5 17 10 14 6 -3 10 3 10 14 0 11 5 23 10 26 6 4 10 -6 10
-24 0 -41 -29 -58 -111 -67 -59 -6 -65 -9 -64 -28 1 -11 -5 -40 -13 -64 l-14
-44 51 -47 c52 -48 63 -74 35 -85 -12 -5 -14 -15 -9 -50 7 -46 0 -86 -15 -86
-5 0 -5 13 0 29 5 19 3 38 -7 59 -13 28 -17 29 -30 17 -8 -8 -26 -15 -41 -14
l-27 1 28 10 c19 7 26 15 23 25 -3 8 -6 23 -6 34 0 13 -11 25 -32 34 -18 7
-42 24 -53 37 l-20 23 -6 -35 c-6 -35 -6 -35 -8 9 -1 43 -1 44 -21 26 -11 -10
-23 -16 -26 -13 -8 9 54 50 65 43 5 -3 18 8 27 25 10 16 25 30 34 31 8 0 4 5
-10 11 l-25 10 23 11 c12 5 22 16 22 24 0 8 5 11 10 8 6 -3 10 -1 10 4 0 6 9
11 20 11 11 0 20 4 20 10 0 5 7 7 15 4 10 -4 15 0 16 12 0 15 2 15 6 4 6 -16
23 -30 35 -30 4 0 6 14 4 30 -2 17 1 30 6 30 6 0 7 8 4 18 -5 14 -4 14 9 -2 8
-11 15 -32 15 -48z"/>
<path d="M3226 1876 c10 -8 21 -12 24 -10 5 6 -21 24 -34 24 -6 0 -1 -6 10
-14z"/>
<path d="M3560 1888 l1 -243 105 -80 c57 -44 110 -81 117 -83 6 -1 60 36 120
83 l107 85 0 240 0 240 -225 0 -225 0 0 -242z m311 89 c89 -59 90 -196 2 -261
-30 -22 -121 -34 -148 -19 -12 7 -1 8 37 6 44 -4 59 -1 87 19 55 37 73 69 73
128 0 59 -18 91 -72 128 -18 12 -28 22 -23 22 6 0 25 -10 44 -23z m-153 -38
c-45 -60 -17 -164 50 -190 38 -15 19 -22 -26 -9 -66 17 -108 95 -81 148 16 32
59 82 71 82 5 0 -2 -14 -14 -31z m66 -43 c6 -19 18 -19 84 0 37 11 24 -12 -18
-31 -34 -16 -40 -23 -38 -44 2 -14 7 -29 13 -33 16 -12 -3 -21 -30 -14 -20 5
-25 12 -23 28 2 16 -3 23 -21 28 -23 5 -24 6 -6 24 18 18 18 19 1 32 -18 13
-18 14 -1 41 20 29 20 29 39 -31z"/>
<path d="M4090 1888 l1 -243 104 -80 c57 -44 110 -81 117 -82 7 -2 60 35 118
80 l105 83 3 242 2 242 -225 0 -225 0 0 -242z m120 145 c0 -34 27 -63 58 -63
21 0 22 2 12 15 -10 12 -10 15 1 15 12 0 12 2 0 9 -11 7 -10 11 7 20 11 6 32
11 46 11 29 0 43 -32 32 -78 -4 -15 -8 -34 -9 -42 -2 -9 -6 -21 -10 -27 -9
-14 33 -121 50 -127 6 -3 17 2 23 10 10 11 9 14 -3 14 -8 0 -20 6 -26 14 -10
12 -8 13 8 9 16 -4 21 -1 21 15 0 13 -9 22 -25 26 -25 6 -35 26 -14 26 7 0 8
11 4 31 -4 17 -2 43 5 60 11 25 18 29 50 29 21 0 43 -7 50 -15 15 -18 4 -56
-16 -48 -7 3 -14 0 -14 -6 0 -6 -4 -11 -10 -11 -5 0 -10 7 -10 15 0 8 5 15 11
15 5 0 7 5 4 10 -4 6 -11 7 -17 4 -7 -5 -9 -1 -5 9 9 23 -19 22 -32 -1 -13
-25 -2 -76 14 -62 9 7 16 6 25 -5 11 -13 10 -14 -4 -9 -20 8 -21 -9 -1 -26 8
-7 12 -16 9 -22 -3 -5 -2 -14 4 -21 24 -31 21 -46 -11 -61 -18 -9 -40 -14 -51
-13 -26 3 -29 -28 -6 -65 18 -30 18 -31 -4 -53 -12 -12 -32 -28 -44 -34 -31
-16 -39 5 -12 34 l21 23 -27 21 c-22 17 -26 26 -20 53 5 30 4 31 -8 15 -8 -11
-13 -24 -10 -30 4 -13 -40 -37 -68 -37 -24 0 -23 16 3 33 17 13 19 19 9 36 -9
19 -8 25 12 41 13 11 31 19 41 20 21 0 22 18 2 45 -12 15 -25 18 -60 16 -55
-3 -85 6 -85 25 0 17 21 19 37 3 8 -8 17 -8 32 1 24 12 21 40 -5 71 -18 20
-24 87 -10 92 18 7 26 -3 26 -30z m50 -33 c0 -5 -4 -10 -10 -10 -5 0 -10 5
-10 10 0 6 5 10 10 10 6 0 10 -4 10 -10z"/>
<path d="M1610 1784 c-25 -8 -62 -13 -82 -12 -42 4 -51 -6 -15 -16 12 -3 61 4
110 16 l87 23 88 -23 c68 -18 94 -21 115 -13 38 15 34 20 -12 14 -24 -3 -59 1
-87 11 -57 19 -143 19 -204 0z"/>
<path d="M1620 1724 c-25 -7 -64 -14 -87 -14 -42 0 -43 -1 -43 -32 0 -30 10
-41 97 -108 53 -41 104 -79 114 -84 14 -6 42 11 129 79 103 81 111 90 108 119
-3 29 -5 31 -43 28 -22 -2 -62 4 -90 12 -61 19 -125 19 -185 0z"/>
<path d="M1816 1531 c-16 -17 -14 -20 37 -60 30 -22 59 -41 66 -41 11 0 38 47
30 53 -2 2 -23 18 -45 35 -48 37 -64 39 -88 13z"/>
<path d="M4126 1515 c-27 -21 -46 -44 -46 -55 0 -29 17 -25 77 21 42 33 51 44
42 55 -16 20 -21 18 -73 -21z"/>
<path d="M1985 1480 c-10 -21 -26 -47 -37 -56 -18 -17 -18 -18 6 -43 14 -14
30 -39 36 -56 l12 -30 10 25 c5 14 21 37 35 52 25 26 25 29 10 46 -9 9 -24 36
-35 60 l-19 42 -18 -40z"/>
<path d="M3996 1497 c-3 -13 -17 -41 -31 -62 l-26 -38 25 -26 c14 -14 29 -37
34 -51 l9 -25 15 35 c9 19 25 44 37 54 21 19 21 19 2 40 -11 12 -27 38 -36 59
-18 43 -21 45 -29 14z"/>
<path d="M2991 1417 c-18 -80 -64 -171 -117 -227 l-47 -50 28 -21 c70 -56 126
-148 141 -232 l6 -41 22 75 c20 68 84 178 104 179 4 1 18 10 31 20 l24 20 -46
49 c-55 59 -84 113 -112 209 l-22 73 -12 -54z"/>
<path d="M2241 1400 c-6 -22 -26 -56 -43 -75 l-30 -35 25 -20 c14 -11 33 -39
43 -63 l18 -44 22 48 c13 26 32 54 42 60 20 12 20 13 -5 45 -13 18 -32 54 -42
79 l-18 46 -12 -41z"/>
<path d="M3745 1412 c-4 -18 -21 -54 -39 -81 -31 -46 -32 -49 -14 -60 11 -7
29 -34 42 -60 l22 -48 18 44 c10 24 29 52 43 63 l25 19 -26 28 c-15 15 -35 50
-45 78 l-18 49 -8 -32z"/>
<path d="M2570 1380 c-16 -60 -45 -116 -86 -166 l-34 -42 44 -43 c37 -39 54
-69 83 -159 3 -8 10 5 17 30 16 60 50 114 92 146 l34 27 -39 42 c-47 52 -67
88 -85 157 l-14 53 -12 -45z"/>
<path d="M3420 1401 c0 -42 -43 -132 -86 -180 l-44 -49 28 -21 c40 -28 83 -94
98 -149 6 -26 14 -40 17 -32 29 90 46 120 83 159 l44 43 -35 42 c-37 46 -85
144 -85 176 0 10 -4 22 -10 25 -5 3 -10 -3 -10 -14z"/>
</g>
</svg>
